<svg xmlns="http://www.w3.org/2000/svg" width="126.059" height="26.736" viewBox="0 0 126.059 26.736">
    <g transform="translate(0 0)">
        <ellipse cx="4" cy="4" rx="4" ry="4" transform="translate(118.059 13.754)" fill="#f9a826"/>
        <path d="M5.44-17.525v2.6H5.37A7.544,7.544,0,0,0-.642-17.736c-4.957,0-8.578,3.9-8.578,9.088,0,5.362,3.762,8.877,8.6,8.877A7.459,7.459,0,0,0,5.511-2.777h.053V0H8.358V-17.526ZM-.343-2.444c-3.568,0-5.906-2.654-5.906-6.187,0-3.9,2.6-6.434,5.941-6.434,3.357,0,5.853,2.83,5.853,6.434A5.928,5.928,0,0,1-.343-2.444Z" transform="translate(56.75 26.508)" fill="#0a0a0a"/>
        <path d="M8.3-9.035c0-5.027-3.27-8.7-8.156-8.7-4.729,0-8.385,3.691-8.385,8.982C-8.244-3.41-4.5.229.474.229a8.615,8.615,0,0,0,7.084-3.3L5.519-4.816A6.205,6.205,0,0,1,.58-2.46,5.714,5.714,0,0,1-5.256-7.84H8.226l-.018-.018A8.057,8.057,0,0,0,8.3-9.035Zm-8-6.012c2.777,0,4.641,1.916,5.1,4.781H-5.186A5.478,5.478,0,0,1,.3-15.047Z" transform="translate(37.34 26.508)" fill="#0a0a0a"/>
        <path d="M5.027-17.736a6.6,6.6,0,0,0-5.7,3.27h-.07v-3.059H-3.657V0H-.739V-8.455c0-3.515,2-6.082,5.326-6.082.3,0,.738.017,1.16.053V-17.7a4.6,4.6,0,0,0-.721-.035Z" transform="translate(21.699 26.508)" fill="#0a0a0a"/>
        <path d="M.967.229A9.775,9.775,0,0,0,8.209-2.742L6.187-4.553A6.762,6.762,0,0,1,1.213-2.461c-3.516,0-5.959-2.549-5.959-6.293,0-3.709,2.426-6.31,5.959-6.31a6.314,6.314,0,0,1,4.9,2.2l2.021-1.758a9.3,9.3,0,0,0-7.066-3.129c-5.15,0-8.771,3.709-8.771,9.018S-4.078.229.967.229Z" transform="translate(7.699 26.508)" fill="#0a0a0a"/>
        <path d="M5.027-17.736a6.6,6.6,0,0,0-5.7,3.27h-.07v-3.059H-3.657V0H-.739V-8.455c0-3.515,2-6.082,5.326-6.082.3,0,.738.017,1.16.053V-17.7a4.6,4.6,0,0,0-.721-.035Z" transform="translate(110.124 26.508)" fill="#0a0a0a"/>
        <path d="M.017.229A8.664,8.664,0,0,0,9.035-8.736a8.673,8.673,0,0,0-9.018-9,8.715,8.715,0,0,0-9.07,9A8.706,8.706,0,0,0,.017.228Zm0-2.689A6.049,6.049,0,0,1-6.1-8.736a6.037,6.037,0,0,1,6.117-6.31A6.008,6.008,0,0,1,6.082-8.736,6.019,6.019,0,0,1,.017-2.461Z" transform="translate(95.613 26.508)" fill="#0a0a0a"/>
        <path d="M5.282-26.507v11.584H5.229A7.491,7.491,0,0,0-.73-17.736c-4.957,0-8.578,3.9-8.578,9.088,0,5.362,3.762,8.877,8.6,8.877A7.351,7.351,0,0,0,5.353-2.777h.053V0H8.2V-26.508ZM-.43-2.443C-4-2.443-6.337-5.1-6.337-8.631c0-3.9,2.6-6.434,5.941-6.434,3.287,0,5.783,2.83,5.783,6.434A5.915,5.915,0,0,1-.431-2.443Z" transform="translate(76.173 26.508)" fill="#0a0a0a"/>
    </g>
</svg>