<?xml version="1.0" encoding="UTF-8"?> <svg xmlns="http://www.w3.org/2000/svg" xmlns:xlink="http://www.w3.org/1999/xlink" viewBox="0 0 644.7 520"><style><![CDATA[.B{stroke-miterlimit:10}.C{fill:#faae24}.D{fill:#47833d}.E{fill:#dc7676}.F{fill:#f8e2d2}.G{fill:none}.H{stroke:#faae24}.I{stroke-width:7}.J{stroke-linecap:round}.K{stroke:#f8e2d2}.L{fill:#6a52a2}]]></style><path d="M284.2-95.7h-108c-6.1 0-11.1-5-11.1-11.1v-273.5c0-6.1 5-11.1 11.1-11.1h108c6.1 0 11.1 5 11.1 11.1v273.5c0 6.1-5 11.1-11.1 11.1zm237-233.2h-69.1c-5.8 0-10.6 4.7-10.6 10.6v46.7c0 5.8 4.7 10.6 10.6 10.6h69.1c5.8 0 10.6-4.7 10.6-10.6v-46.7a10.54 10.54 0 0 0-10.6-10.6z" class="E"></path><g class="F"><path d="M466.2-302.6c2 0 5.4.8 5.4 3.1v1.4h-1.9v-.8c0-1.2-2.1-1.8-3.5-1.8-2.9 0-5.2 2.2-5.2 5.5 0 3.2 2.3 5.7 5.2 5.7s4.6-2 4.6-2l1.1 1.5s-2.1 2.4-5.7 2.4c-4.3 0-7.4-3.3-7.4-7.6.1-4.2 3.2-7.4 7.4-7.4z"></path><use xlink:href="#B"></use><path d="M480-296a.47.47 0 0 0-.5-.5h-.8v-1.7h2c.9 0 1.3.4 1.3 1.3v6.9a.47.47 0 0 0 .5.5h.8v1.7h-2c-.9 0-1.3-.4-1.3-1.3v-6.9zm0-6.3h1.8v2.1H480v-2.1zm9.7 3.9c2.9 0 4.5 2.2 4.5 4.9 0 .3-.1.8-.1.8h-7.6c.1 2.2 1.7 3.5 3.6 3.5 1.8 0 3-1.2 3-1.2l.9 1.4s-1.5 1.5-4 1.5c-3.3 0-5.5-2.4-5.5-5.4 0-3.4 2.3-5.5 5.2-5.5zm2.4 4.2c-.1-1.7-1.2-2.6-2.4-2.6-1.5 0-2.8.9-3.1 2.6h5.5z"></path><use xlink:href="#C"></use><use xlink:href="#D"></use></g><path d="M490.6-248.8v68.3c0 8.1-6.6 14.7-14.7 14.7H346.2" class="B G H I J"></path><path d="M351.3-183.3l-30.2 17.4 30.2 17.5z" class="C"></path><g class="E"><g class="K"><path d="M37.3-206.7v72c0 5.6 17.2 10.2 38.4 10.2s38.4-4.6 38.4-10.2v-72H37.3z" class="B"></path><ellipse cx="75.7" cy="-206.7" rx="38.4" ry="10.2"></ellipse></g><use xlink:href="#E"></use><use xlink:href="#F"></use><use xlink:href="#G"></use><path d="M70.4-232.5h.5v-.1c-.1-2-.9-2.8-2.7-2.7-.6 0-1.9.2-1.9 1v.7l-2.1.1v-1.1c-.1-1.9 2.8-2.3 3.9-2.3 3.8-.1 4.8 1.8 4.9 4.4l.2 4.9a.47.47 0 0 0 .5.5h.9l.1 1.9-2.1.1c-1 0-1.5-.5-1.5-1.3v-.7s-.8 2.3-3.6 2.4c-2 .1-4-1.1-4.1-3.4 0-3.9 5.1-4.3 7-4.4zm-2.3 5.9c1.9-.1 3-2.1 3-3.8v-.4h-.6c-1.7.1-4.7.3-4.6 2.4-.1.9.7 1.8 2.2 1.8zm9.3-12.6a.47.47 0 0 0-.5-.5H76l.1-1.9 2.2.1c1 0 1.5.5 1.4 1.5l-.1 3.8c0 .6-.1 1-.1 1s1.1-1.9 3.8-1.8c3.1.1 5 2.7 4.9 6.3-.1 3.7-2.4 6-5.5 5.9-2.6-.1-3.6-2.1-3.6-2.1v1.7l-2.1-.1.4-13.9zm5 12.4c1.8.1 3.4-1.4 3.5-4 .1-2.5-1.2-4.2-3.2-4.3-1.7-.1-3.4 1.1-3.5 4.1 0 2 1 4.1 3.2 4.2z"></path><use xlink:href="#H"></use><use xlink:href="#I"></use><path d="M120.7-230.7c3.1 1.2 3.8 4.1 2.8 6.9-.1.3-.4.8-.4.8l-7.9-3c-.8 2.4.4 4.3 2.4 5.1 1.9.7 3.7-.1 3.7-.1l.3 1.8s-2.2 1-4.8 0c-3.4-1.3-4.9-4.7-3.6-7.9 1.2-3.5 4.4-4.8 7.5-3.6zm.9 5.3c.6-1.8-.2-3.2-1.5-3.7-1.6-.6-3.2-.1-4.3 1.6l5.8 2.1z"></path><path d="M75.7-172c-21.2 0-38.4-4.6-38.4-10.2m76.8 0c0 5.6-17.2 10.2-38.4 10.2m0 24.5c-21.2 0-38.4-4.6-38.4-10.2m76.8 0c0 5.6-17.2 10.2-38.4 10.2" class="B K"></path></g><path d="M74.9-250.1v-30.3c0-8.1 6.6-14.7 14.7-14.7h134.9" class="B G H I J"></path><path d="M219.4-277.6l30.2-17.5-30.2-17.4z" class="C"></path><g class="F"><path d="M179.6-362.4h.8a.47.47 0 0 0 .5-.5l1.2-14.6h2.5l4.1 9.2.9 2.2s.4-1.2.9-2.2l4.1-9.2h2.5l1.2 14.6a.47.47 0 0 0 .5.5h.8v2.1h-2.2c-1.1 0-1.5-.5-1.6-1.6l-.7-9.1c-.1-1 0-2.5 0-2.5l-.9 2.5-3.5 7.6h-2.1l-3.5-7.6c-.4-.9-.9-2.6-.9-2.6v2.6l-.7 9.1c-.1 1.1-.5 1.6-1.6 1.6h-2.2v-2.1zm23.5 5.2c1 0 1.7-.7 2.2-1.8l.6-1.3-4.2-9.8c-.2-.4-.4-.5-.8-.5h-.3v-2h1.4c1 0 1.4.3 1.8 1.2l2.8 7c.2.6.4 1.5.4 1.5l.4-1.5 2.6-7c.4-1 .8-1.2 1.8-1.2h1.4v2h-.3c-.4 0-.6.1-.8.5l-4.9 12.1c-.8 1.9-2.3 2.9-4 2.9-1.8 0-2.9-1.2-2.9-1.2l1-1.7c-.1 0 .7.8 1.8.8zm17.3-5.2h.3c.4 0 .7-.1.8-.5l5.4-14.6h2.6l5.4 14.6c.1.4.4.5.8.5h.4v2.1h-1.4c-1.2 0-1.6-.3-2-1.4l-1.3-3.6H225l-1.3 3.6c-.4 1.1-.8 1.4-2 1.4h-1.3v-2.1zm10.4-4.9l-1.9-5.3-.7-2.4s-.3 1.5-.7 2.4l-1.9 5.3h5.2z"></path><use xlink:href="#J"></use><use xlink:href="#J" x="14.8"></use></g><path d="M249.6-168.3H121.8" class="C"></path><path d="M249.6-168.3H146.9" class="B G H I J"></path><path d="M152-185.8l-30.2 17.5 30.2 17.5zm169.1-109.3h112" class="C"></path><path d="M321.1-295.1H408" class="B G H I J"></path><path d="M402.9-277.6l30.2-17.5-30.2-17.4z" class="C"></path><path d="M571.7-341.8H390.2c-5.3 0-10.2 2.5-13.3 6.8L359-310.3v-126.3a8.24 8.24 0 0 1 8.2-8.2h204.6a8.24 8.24 0 0 1 8.2 8.2v86.7c-.1 4.4-3.7 8.1-8.3 8.1z" class="F"></path><use xlink:href="#K"></use><g class="D"><use xlink:href="#L"></use><use xlink:href="#M"></use><path d="M402-413.8c0-.5.1-.9.2-1.3s.3-.7.6-1c.2-.3.5-.5.8-.6s.7-.2 1-.2c.4 0 .7.1.9.2.3.1.5.3.8.6v-3.3h1v8.5h-.8l-.1-.8c-.2.2-.5.5-.9.6s-.7.3-1 .3c-.4 0-.7-.1-1-.2s-.6-.3-.8-.6-.4-.6-.5-1c-.1-.2-.2-.7-.2-1.2zm1 0c0 .7.1 1.3.5 1.6.3.4.7.6 1.3.6s1.1-.3 1.6-.9v-2.9c-.3-.2-.5-.4-.8-.5s-.5-.2-.8-.2-.5.1-.7.2-.4.3-.6.5-.3.4-.4.7c0 .3-.1.6-.1.9z"></path><use xlink:href="#N"></use></g><use xlink:href="#O"></use><g class="L"><use xlink:href="#P"></use><use xlink:href="#Q"></use><use xlink:href="#R"></use></g><use xlink:href="#S"></use><g class="D"><use xlink:href="#L" y="14.4"></use><path d="M394.7-402.3h1l1.3 3.3.3.9.3.8.3-.8.3-.9 1.3-3.3h.9l-2.4 5.8h-1.1l-2.2-5.8z"></path><use xlink:href="#T"></use><use xlink:href="#U"></use><use xlink:href="#V"></use><path d="M424-402.3h3.7v5.8h-1v-5H424v-.8zm3.1-1.2c-.2 0-.4-.1-.6-.2-.1-.1-.2-.3-.2-.6 0-.2.1-.4.2-.6.1-.1.3-.2.6-.2.2 0 .4.1.6.2s.2.3.2.6c0 .2-.1.4-.2.6-.2.1-.4.2-.6.2z"></path><use xlink:href="#W"></use><use xlink:href="#X"></use><use xlink:href="#N" x="36" y="14.4"></use></g><use xlink:href="#O" x="36" y="14.4"></use><use xlink:href="#P" x="36" y="14.4" class="L"></use><use xlink:href="#S" x="21.6" y="14.4"></use><g class="D"><use xlink:href="#L" y="28.8"></use><use xlink:href="#X" x="-43.2" y="14.4"></use><use xlink:href="#Y"></use><use xlink:href="#Z"></use><use xlink:href="#T" x="14.4" y="14.4"></use><use xlink:href="#N" x="14.4" y="28.8"></use></g><use xlink:href="#O" x="14.4" y="28.8"></use><g class="D"><use xlink:href="#L" x="57.6" y="28.8"></use><path d="M452.7-389.9h1.9c1.2 0 2.1.3 2.7 1s.9 1.6.9 2.9c0 .6-.1 1.2-.2 1.7-.2.5-.4.9-.7 1.2a4.44 4.44 0 0 1-1.1.8c-.4.2-1 .3-1.5.3h-2v-7.9zm1.9 7c.9 0 1.6-.3 2-.8.4-.6.7-1.3.7-2.3s-.2-1.8-.7-2.3c-.4-.5-1.1-.8-2-.8h-.9v6.2h.9z"></path><use xlink:href="#T" x="57.6" y="14.4"></use><use xlink:href="#a"></use><use xlink:href="#M" x="79.2" y="28.8"></use><use xlink:href="#b"></use><use xlink:href="#M" x="93.6" y="28.8"></use><use xlink:href="#W" x="64.8" y="14.4"></use><use xlink:href="#c"></use><path d="M510.6-383.5c.3.2.7.4 1.1.6.4.1.8.2 1.4.2s.9-.1 1.2-.3.4-.4.4-.6-.1-.4-.4-.6-.8-.4-1.5-.5l-.9-.3c-.3-.1-.5-.2-.7-.4-.2-.1-.4-.3-.5-.5s-.2-.4-.2-.6.1-.4.2-.7c.1-.2.3-.4.5-.5s.5-.3.8-.3c.3-.1.7-.1 1.1-.1s.9.1 1.3.2.8.3 1.1.5l-.5.6a2.47 2.47 0 0 0-.9-.4c-.3-.1-.6-.2-1-.2-.3 0-.5 0-.7.1s-.3.1-.4.2-.2.2-.2.3-.1.2-.1.3c0 .2.2.4.5.6s.8.3 1.3.4c.8.2 1.4.4 1.8.7s.6.6.6 1.1c0 .2-.1.5-.2.7s-.3.4-.5.6-.5.3-.8.4-.7.1-1.1.1c-.6 0-1.1-.1-1.6-.3s-.9-.4-1.3-.6l.2-.7zm13.9-2.5c0-.6.1-1.2.3-1.7s.4-.9.7-1.3.7-.6 1.1-.8.9-.3 1.4-.3.9.1 1.3.3.7.4.9.7l-.6.6c-.2-.2-.4-.4-.7-.5s-.6-.2-.9-.2c-.4 0-.7.1-1 .2s-.6.4-.8.6c-.2.3-.4.6-.5 1s-.2.8-.2 1.3.1.9.2 1.3.3.7.5 1 .5.5.8.6c.3.2.6.2 1 .2s.7-.1 1-.2c.3-.2.5-.4.8-.6l.6.6c-.3.4-.7.6-1.1.8s-.8.3-1.3.3-1-.1-1.4-.3a4.44 4.44 0 0 1-1.1-.8 2.73 2.73 0 0 1-.7-1.3c-.1-.5-.3-.9-.3-1.5z"></path><use xlink:href="#Y" x="129.6"></use><path d="M539.4-390.6h1v5.8l3.2-3.1h1.1l-2.3 2.3 2.6 3.5h-1.1l-2.1-2.9-1.4 1.3v1.6h-1v-8.5z"></path><use xlink:href="#T" x="144" y="14.4"></use><use xlink:href="#N" x="144" y="28.8"></use></g><use xlink:href="#S" x="107.9" y="28.8"></use><use xlink:href="#d"></use><use xlink:href="#d" x="7.2"></use><use xlink:href="#d" x="14.4"></use><use xlink:href="#e"></use><path d="M302.1-132.1h-25.2a7.85 7.85 0 0 1-7.9-7.9v-181.6a7.85 7.85 0 0 1 7.9-7.9h25.2a7.85 7.85 0 0 1 7.9 7.9V-140c0 4.3-3.6 7.9-7.9 7.9z" class="C"></path><path d="M280.5-179.1v1.9H278v-8.8c0-3.6 2.2-6.1 5.9-6.1 3.4 0 5.1 2.2 5.4 3.6h.1s.3-.5.9-.9l4.9-2.4c.6-.3.7-.7.7-1.4v-.4h2.5v1.4c0 1.6-.2 2.2-1.5 2.8l-5.5 2.8c-.9.5-1.1.9-1.1 2v2.6h8.1v2.9h-17.9zm7.2-6.6c0-2.2-1.4-3.5-3.7-3.5s-3.6 1.3-3.6 3.4v3.8h7.3v-3.7zm-4.3-16.3c0-4.1 3-6.3 6.8-6.3.4 0 1.1.1 1.1.1v10.6c3.1-.2 4.9-2.4 4.9-5 0-2.5-1.7-4.2-1.7-4.2l2-1.2s2.1 2.2 2.1 5.6c0 4.6-3.3 7.7-7.6 7.7-4.6 0-7.6-3.2-7.6-7.3zm5.9-3.4c-2.4.1-3.7 1.6-3.7 3.4 0 2.1 1.3 3.8 3.7 4.3v-7.7zm4.9-6.3s2.2-1.7 2.2-4.4c0-1.3-.6-2.5-1.9-2.5-2.6 0-2.3 7.9-7 7.9-2.8 0-4.1-2.4-4.1-5.4 0-1.8.6-4.8 2.8-4.8h1.4v2.5h-.7c-.9 0-1.2 1.3-1.2 2.2 0 1.6.6 2.7 1.7 2.7 2.8 0 2.2-7.9 7-7.9 2.6 0 4.2 2.3 4.2 5.3 0 3.9-2.6 5.8-2.6 5.8l-1.8-1.4zm-8.2-13.4v1.9h-2.2v-2h-4v-2.7h4v-3.5h2.2v3.5h6.7c2.9 0 3.3-2 3.3-3.1 0-.4-.1-.7-.1-.7h2.5s.1.4.1 1c0 1.8-.6 5.5-5.4 5.5H286zm9.8-15.6v-.4c0-.5-.1-.8-.6-.9l-17.2-6.3v-3l17.2-6.3c.5-.2.6-.5.6-.9v-.4h2.5v1.6c0 1.4-.3 1.9-1.7 2.4l-4.2 1.5v7.5l4.2 1.5c1.3.5 1.7.9 1.7 2.4v1.6h-2.5zm-5.8-12.2l-6.2 2.2c-1.1.4-2.8.8-2.8.8v.1s1.8.4 2.8.8l6.2 2.2v-6.1zm-9.5-9.5v1.9H278v-8.9c0-3.7 2.5-6.3 6.3-6.3s6.4 2.6 6.4 6.3v4.2h7.5v2.9h-17.7zm7.8-6.6c0-2.4-1.5-3.8-4-3.8-2.4 0-3.9 1.5-3.9 3.8v3.8h7.8v-3.8zm7.5-8.7v-2h-15.3v2H278v-6.7h2.5v2h15.3v-2h2.5v6.7h-2.5z" fill="#fff"></path><path d="M565.1-138.1H438.2c-2.3 0-4.5-1.1-5.9-3l-8-11v44.3c0 2 1.6 3.6 3.6 3.6h137.2c2 0 3.6-1.6 3.6-3.6v-26.6c0-2.1-1.6-3.7-3.6-3.7z" class="F"></path><g class="E"><path d="M448.1-125.9c2 0 3 1 3 1l-.7.9s-.9-.8-2.3-.8c-1.7 0-3 1.4-3 3.2 0 2 1.4 3.3 3.1 3.3 1.5 0 2.4-1.1 2.4-1.1v-.9c0-.2-.1-.3-.3-.3h-.5v-1h1.1c.5 0 .8.2.8.8v3.4h-1.1v-.9s-.9 1-2.6 1c-2.3 0-4.1-1.8-4.1-4.4-.1-2.3 1.8-4.2 4.2-4.2zm5.3 1.2h-.8v-1h5c.5 0 .8.2.8.8v1.1h-1.1v-.5c0-.2-.1-.3-.3-.3h-2.4v2.7h3v1h-3v2.5c0 .2.1.3.3.3h2.5c.2 0 .3-.1.3-.3v-.5h1.1v1.1c0 .5-.2.8-.8.8h-3.8c-.5 0-.8-.2-.8-.8v-6.9zm8.7 0h-1.7c-.2 0-.3.1-.3.3v.5H459v-1.1c0-.5.2-.7.7-.7h5.8c.5 0 .7.2.7.7v1.1h-1.1v-.5c0-.2-.1-.3-.3-.3h-1.7v7.4h-1.2v-7.4zm10.5-1.5h1l-3 9.4h-1l3-9.4zm2.1 4.1c0-.2-.1-.3-.3-.3h-.5v-1h1.1c.5 0 .7.2.7.6v.3s.5-1.1 2-1.1c1.6 0 2.7 1.3 2.7 3.2s-1.2 3.2-2.8 3.2c-1.3 0-1.9-1-1.9-1v3.2h-1.2v-7.1zm2.8 3.9c1 0 1.8-.8 1.8-2.2 0-1.3-.7-2.2-1.7-2.2-.9 0-1.8.6-1.8 2.2 0 1.2.6 2.2 1.7 2.2z"></path><use xlink:href="#f"></use><path d="M489-123.5c1.8 0 3.3 1.3 3.3 3.2 0 1.8-1.5 3.2-3.3 3.2s-3.3-1.3-3.3-3.2c.1-1.9 1.5-3.2 3.3-3.2zm0 5.3c1.2 0 2.1-.9 2.1-2.2s-.9-2.2-2.1-2.2c-1.1 0-2.1.9-2.1 2.2.1 1.3 1 2.2 2.1 2.2zm6.9-5.3c1.4 0 1.9.9 1.9.9v-1.9c0-.2-.1-.3-.3-.3h-.5v-1h1.2c.5 0 .8.2.8.8v6.4c0 .2.1.3.3.3h.5v1h-1.1c-.5 0-.7-.2-.7-.6v-.3s-.5 1.1-2 1.1c-1.6 0-2.7-1.3-2.7-3.2-.1-2 1-3.2 2.6-3.2zm1.9 3.1c0-1.1-.6-2.2-1.7-2.2-.9 0-1.7.8-1.7 2.2 0 1.3.7 2.2 1.7 2.2.9 0 1.7-.6 1.7-2.2zm3.2-1.7c0-.2-.1-.3-.3-.3h-.5v-1h1.1c.6 0 .8.2.8.7v2.9c0 .8.2 1.5 1.1 1.5 1.2 0 2-1.1 2-2.3v-2.8h1.2v4.8c0 .2.1.3.3.3h.5v1h-1.1c-.5 0-.8-.2-.8-.7v-.5c-.3.6-1 1.4-2.2 1.4-1.4 0-2.1-.7-2.1-2.3v-2.7zm10.1-1.4c.7 0 2.2.3 2.2 1.3v.6h-1.1v-.3c0-.4-.7-.6-1.1-.6-1.2 0-2.1.9-2.1 2.2 0 1.4 1 2.2 2.1 2.2s1.9-.8 1.9-.8l.5.8s-.9 1-2.5 1c-1.9 0-3.2-1.4-3.2-3.2.1-1.8 1.4-3.2 3.3-3.2zm3.8 1.1h-.8v-.9h.8v-1.7h1.1v1.7h1.5v.9H516v2.8c0 1.2.8 1.4 1.3 1.4h.3v1h-.4c-.8 0-2.3-.2-2.3-2.3v-2.9zm4.1 3.4s.7.9 1.8.9c.6 0 1.1-.3 1.1-.8 0-1.1-3.3-1-3.3-2.9 0-1.2 1-1.7 2.3-1.7.7 0 2 .3 2 1.2v.6h-1v-.3c0-.4-.5-.5-.9-.5-.7 0-1.1.2-1.1.7 0 1.2 3.3.9 3.3 2.9 0 1.1-1 1.8-2.2 1.8-1.6 0-2.4-1.1-2.4-1.1l.4-.8zm7.6-7.2h1l-3 9.4h-1l3-9.4zm1.8 7.9h1.9v-6s-.1.2-.4.5l-.8.8-.7-.7 2-2h1.1v7.4h1.8v1h-4.9v-1zm10.1-5.2c0-.8-.6-1.3-1.5-1.3-.8 0-1.3.4-1.3.8v.4h-1.1v-.7c0-1.1 1.5-1.6 2.5-1.6 1.5 0 2.7 1 2.7 2.4 0 2.9-4.3 3-4.3 4.9 0 .2.1.2.3.2h3c.2 0 .3-.1.3-.3v-.5h1.1v1.1c0 .5-.2.8-.8.8H535c-.7 0-.8-.3-.8-1 0-3.1 4.3-2.9 4.3-5.2zm3.1 4.2s.8 1 2.1 1c.9 0 1.7-.6 1.7-1.5s-.8-1.5-1.8-1.5h-.6l-.3-.6 1.8-2.2c.3-.4.5-.6.5-.6h-2.3c-.2 0-.3.1-.3.3v.5h-1.1v-1.1c0-.5.2-.8.7-.8h4.5v.8l-2.2 2.7c1.1.1 2.4.9 2.4 2.5 0 1.4-1.1 2.7-2.9 2.7s-2.8-1.2-2.8-1.2l.6-1zM271.7 392.8h-108c-6.1 0-11.1-5-11.1-11.1V108.2c0-6.1 5-11.1 11.1-11.1h108c6.1 0 11.1 5 11.1 11.1v273.5c0 6.2-5 11.1-11.1 11.1zm237-233.2h-69.1c-5.8 0-10.6 4.7-10.6 10.6v46.7c0 5.8 4.7 10.6 10.6 10.6h69.1c5.8 0 10.6-4.7 10.6-10.6v-46.7c0-5.9-4.8-10.6-10.6-10.6z"></path></g><g class="F"><path d="M453.7 186c2 0 5.4.8 5.4 3.1v1.4h-1.9v-.8c0-1.2-2.1-1.8-3.5-1.8-2.9 0-5.2 2.2-5.2 5.5 0 3.2 2.3 5.7 5.2 5.7s4.6-2 4.6-2l1.1 1.5s-2.1 2.4-5.7 2.4c-4.3 0-7.4-3.3-7.4-7.6.1-4.3 3.2-7.4 7.4-7.4z"></path><use xlink:href="#B" x="-12.5" y="488.5"></use><path d="M467.5 192.5a.47.47 0 0 0-.5-.5h-.8v-1.7h2c.9 0 1.3.4 1.3 1.3v6.9a.47.47 0 0 0 .5.5h.8v1.7h-2c-.9 0-1.3-.4-1.3-1.3v-6.9zm0-6.3h1.8v2.1h-1.8v-2.1zm9.7 3.9c2.9 0 4.5 2.2 4.5 4.9 0 .3-.1.8-.1.8H474c.1 2.2 1.7 3.5 3.6 3.5 1.8 0 3-1.2 3-1.2l.9 1.4s-1.5 1.5-4 1.5c-3.3 0-5.5-2.4-5.5-5.4 0-3.4 2.3-5.5 5.2-5.5zm2.4 4.2c-.1-1.7-1.2-2.6-2.4-2.6-1.5 0-2.8.9-3.1 2.6h5.5z"></path><use xlink:href="#C" x="-12.5" y="488.5"></use><use xlink:href="#D" x="-12.5" y="488.5"></use></g><path d="M478.1 239.7V308c0 8.1-6.6 14.7-14.7 14.7H333.7" class="B G H I J"></path><path d="M338.8 305.2l-30.2 17.5 30.2 17.4z" class="C"></path><g class="E"><g class="K"><path d="M24.8 281.8v72c0 5.6 17.2 10.2 38.4 10.2s38.4-4.6 38.4-10.2v-72H24.8z" class="B"></path><ellipse cx="63.2" cy="281.8" rx="38.4" ry="10.2"></ellipse></g><use xlink:href="#E" x="-12.5" y="488.5"></use><use xlink:href="#F" x="-12.5" y="488.5"></use><use xlink:href="#G" x="-12.5" y="488.5"></use><path d="M57.9 256h.5v-.1c-.1-2-.9-2.8-2.7-2.7-.6 0-1.9.2-1.9 1v.7l-2.1.1v-1.1c-.1-1.9 2.8-2.3 3.9-2.3 3.8-.1 4.8 1.8 4.9 4.4l.2 4.9a.47.47 0 0 0 .5.5h.9l.1 1.9-2.1.1c-1 0-1.5-.5-1.5-1.3v-.7s-.8 2.3-3.6 2.4c-2 .1-4-1.1-4.1-3.4 0-3.9 5.1-4.3 7-4.4zm-2.4 5.9c1.9-.1 3-2.1 3-3.8v-.4h-.6c-1.7.1-4.7.3-4.6 2.4 0 .9.8 1.8 2.2 1.8zm9.4-12.5a.47.47 0 0 0-.5-.5h-.9l.1-1.9 2.2.1c1 0 1.5.5 1.4 1.5l-.1 3.8c0 .6-.1 1-.1 1s1.1-1.9 3.8-1.8c3.1.1 5 2.7 4.9 6.3-.1 3.7-2.4 6-5.5 5.9-2.6-.1-3.6-2.1-3.6-2.1v1.7l-2.1-.1.4-13.9zm5 12.3c1.8.1 3.4-1.4 3.5-4 .1-2.5-1.2-4.2-3.2-4.3-1.7-.1-3.4 1.1-3.5 4.1 0 2 1 4.1 3.2 4.2z"></path><use xlink:href="#H" x="-12.5" y="488.5"></use><use xlink:href="#I" x="-12.5" y="488.5"></use><path d="M108.2 257.8c3.1 1.2 3.8 4.1 2.8 6.9-.1.3-.4.8-.4.8l-7.9-3c-.8 2.4.4 4.3 2.4 5.1 1.9.7 3.7-.1 3.7-.1l.3 1.8s-2.2 1-4.8 0c-3.4-1.3-4.9-4.7-3.6-7.9 1.2-3.5 4.4-4.8 7.5-3.6zm.8 5.4c.6-1.8-.2-3.2-1.5-3.7-1.6-.6-3.2-.1-4.3 1.6l5.8 2.1z"></path><g class="B K"><path d="M63.2,316.5c-21.2,0-38.4-4.6-38.4-10.2"></path><path d="M101.5 306.3c0 5.6-17.2 10.2-38.4 10.2m.1 24.5c-21.2 0-38.4-4.6-38.4-10.2"></path><path d="M101.5,330.8c0,5.6-17.2,10.2-38.4,10.2"></path></g></g><path d="M62.4 238.4v-30.3c0-8.1 6.6-14.7 14.7-14.7H212" class="B G H I J"></path><path d="M206.9 210.9l30.2-17.4-30.2-17.5z" class="C"></path><g class="F"><path d="M167.1 126.1h.8a.47.47 0 0 0 .5-.5l1.2-14.6h2.5l4.1 9.2.9 2.2s.4-1.2.9-2.2l4.1-9.2h2.5l1.2 14.6a.47.47 0 0 0 .5.5h.8v2.1H185c-1.1 0-1.5-.5-1.6-1.6l-.7-9.1c-.1-1 0-2.5 0-2.5l-.9 2.5-3.5 7.6h-2.1l-3.5-7.6c-.4-.9-.9-2.6-.9-2.6v2.6l-.7 9.1c-.1 1.1-.5 1.6-1.6 1.6h-2.2v-2.1zm23.4 5.2c1 0 1.7-.7 2.2-1.8l.6-1.3-4.2-9.8c-.2-.4-.4-.5-.8-.5h-.3v-2h1.4c1 0 1.4.3 1.8 1.2l2.8 7c.2.6.4 1.5.4 1.5l.4-1.5 2.6-7c.4-1 .8-1.2 1.8-1.2h1.4v2h-.3c-.4 0-.6.1-.8.5l-4.9 12.1c-.8 1.9-2.3 2.9-4 2.9-1.8 0-2.9-1.2-2.9-1.2l1-1.7s.8.8 1.8.8zm17.4-5.2h.3c.4 0 .7-.1.8-.5l5.4-14.6h2.6l5.4 14.6c.1.4.4.5.8.5h.4v2.1h-1.4c-1.2 0-1.6-.3-2-1.4l-1.3-3.6h-6.4l-1.3 3.6c-.4 1.1-.8 1.4-2 1.4h-1.3v-2.1zm10.4-4.9l-1.9-5.3-.7-2.4s-.3 1.5-.7 2.4l-1.9 5.3h5.2zm7.7-2.8c0-.4-.2-.5-.5-.5h-1v-2h2.2c1.1 0 1.5.5 1.5 1.2v.7s1-2.2 4.1-2.2c3.3 0 5.5 2.6 5.5 6.5s-2.4 6.5-5.6 6.5c-2.7 0-3.8-2-3.8-2v6.6H226v-14.8zm5.8 8.1c2 0 3.6-1.6 3.6-4.4 0-2.7-1.4-4.4-3.5-4.4-1.8 0-3.6 1.3-3.6 4.5 0 2.1 1.2 4.3 3.5 4.3z"></path><use xlink:href="#J" x="2.3" y="488.5"></use></g><path d="M237.1 320.2H109.3" class="C"></path><path d="M237.1 320.2H134.4" class="B G H I J"></path><path d="M139.5 302.8l-30.2 17.4 30.2 17.5zm169.1-109.3h112" class="C"></path><path d="M308.6 193.5h86.9" class="B G H I J"></path><path d="M390.4 210.9l30.2-17.4-30.2-17.5z" class="C"></path><path d="M626.2 142.2H378.7c-5.3 0-10.2 2.5-13.3 6.8l-17.9 24.7V20.4a8.24 8.24 0 0 1 8.2-8.2h270.6a8.24 8.24 0 0 1 8.2 8.2V134c-.1 4.5-3.8 8.2-8.3 8.2z" class="F"></path><path d="M362.4 31.3v-2.4c0-.1 0-.2-.1-.3 0-.1-.1-.2-.3-.3s-.3-.2-.5-.2c-.2-.1-.5-.1-.9-.1v-.6c.4 0 .6 0 .9-.1.2-.1.4-.1.5-.2l.3-.3c0-.1.1-.2.1-.3 0-.4 0-.8-.1-1.1s-.1-.8-.1-1.2c0-.3 0-.6.1-.8s.2-.4.4-.5.4-.2.7-.3.6-.1 1-.1h.7v.6h-.6c-.3 0-.6 0-.8.1-.2 0-.3.1-.5.2-.1.1-.2.2-.2.3s-.1.3-.1.5v2.2c0 .4-.1.7-.2.9-.2.2-.4.3-.9.4.4.1.7.2.9.4s.2.5.2.9v2.2c0 .2 0 .4.1.5s.1.3.2.3c.1.1.3.1.5.2.2 0 .4.1.8.1h.6v.6h-.7c-.4 0-.7 0-1-.1s-.5-.1-.7-.3c-.2-.1-.3-.3-.4-.5.1-.1.1-.4.1-.7z"></path><g class="D"><use xlink:href="#g"></use><path d="M381.6 42.6c0-.5.1-.9.2-1.3s.3-.7.6-1c.2-.3.5-.5.8-.6s.7-.2 1-.2c.4 0 .7.1.9.2.3.1.5.3.8.6V37h1v8.5h-.8l-.1-.8c-.2.2-.5.5-.9.6s-.7.3-1 .3c-.4 0-.7-.1-1-.2s-.6-.3-.8-.6-.4-.6-.5-1a3.73 3.73 0 0 1-.2-1.2zm1.1 0c0 .7.1 1.3.5 1.6.3.4.7.6 1.3.6s1.1-.3 1.6-.9V41c-.3-.2-.5-.4-.8-.5s-.5-.2-.8-.2-.5.1-.7.2-.4.3-.6.5-.3.4-.4.7c-.1.2-.1.5-.1.9z"></path><use xlink:href="#h"></use><path d="M397.8 40.5h-1.6v-.7l1.7-.1.1-1.7h.8v1.6h2.9v.8h-2.9v2.8c0 .3 0 .5.1.7 0 .2.1.4.2.5s.3.2.5.3.4.1.7.1.5 0 .8-.1c.2 0 .4-.1.6-.2l.2.7c-.3.1-.5.2-.9.2-.3.1-.6.1-1 .1s-.8-.1-1.1-.2-.5-.3-.7-.5-.3-.5-.4-.8-.1-.6-.1-1v-2.5z"></path><use xlink:href="#h" x="14.4"></use><use xlink:href="#N" x="1.2" y="456.3"></use></g><use xlink:href="#i"></use><use xlink:href="#K" x="58.8" y="470.7"></use><g class="D"><use xlink:href="#g" x="14.4" y="14.4"></use><use xlink:href="#j"></use><use xlink:href="#U" x="-5.9" y="456.4"></use><use xlink:href="#k"></use><path d="M417.6 57c0-.5.1-.9.2-1.3s.3-.7.6-1c.2-.3.5-.5.8-.6s.7-.2 1-.2c.4 0 .7.1.9.2.3.1.5.3.8.6v-3.3h1v8.5h-.8l-.1-.8c-.2.2-.5.5-.9.6s-.7.3-1 .3c-.4 0-.7-.1-1-.2s-.6-.3-.8-.6-.4-.6-.5-1a3.73 3.73 0 0 1-.2-1.2zm1.1 0c0 .7.1 1.3.5 1.6.3.4.7.6 1.3.6s1.1-.3 1.6-.9v-2.9c-.3-.2-.5-.4-.8-.5s-.5-.2-.8-.2-.5.1-.7.2-.4.3-.6.5-.3.4-.4.7c-.1.2-.1.5-.1.9zm11.5 2.9h-.8l-.1-1c-.3.3-.6.6-1 .8-.3.2-.8.3-1.2.3-.7 0-1.2-.2-1.5-.6s-.5-1-.5-1.8V54h1v3.5c0 .6.1 1 .3 1.2.2.3.6.4 1 .4.3 0 .6-.1.9-.3s.6-.4.9-.8v-4h1v5.9z"></path><use xlink:href="#b" x="-49.1" y="442"></use><path d="M441 54.9h-1.6v-.7l1.7-.1.1-1.6h.8v1.6h2.9v.8H442v2.8c0 .3 0 .5.1.7 0 .2.1.4.2.5s.3.2.5.3.4.1.7.1.5 0 .8-.1c.2 0 .4-.1.6-.2l.2.7c-.3.1-.5.2-.9.2-.3.1-.6.1-1 .1s-.8-.1-1.1-.2-.5-.3-.7-.5-.3-.5-.4-.8-.1-.6-.1-1v-2.6z"></path><use xlink:href="#N" x="37.2" y="470.7"></use></g><use xlink:href="#i" x="36" y="14.4"></use><path d="M470.4 60.1v-2.4c0-.1 0-.2-.1-.3 0-.1-.1-.2-.3-.3s-.3-.2-.5-.2c-.2-.1-.5-.1-.9-.1v-.6c.4 0 .6 0 .9-.1.2-.1.4-.1.5-.2l.3-.3c0-.1.1-.2.1-.3 0-.4 0-.8-.1-1.1s-.1-.8-.1-1.2c0-.3 0-.6.1-.8s.2-.4.4-.5.4-.2.7-.3.6-.1 1-.1h.7v.7h-.6c-.3 0-.6 0-.8.1-.2 0-.3.1-.5.2-.1.1-.2.2-.2.3s-.1.3-.1.5v2.2c0 .4-.1.7-.2.9-.2.2-.4.3-.9.4.4.1.7.2.9.4s.2.5.2.9v2.2c0 .2 0 .4.1.5s.1.3.2.3c.1.1.3.1.5.2.2 0 .4.1.8.1h.6v.6h-.7c-.4 0-.7 0-1-.1s-.5-.1-.7-.3c-.2-.1-.3-.3-.4-.5s.1-.5.1-.8z"></path><g class="D"><use xlink:href="#g" x="28.8" y="28.8"></use><use xlink:href="#X" x="-27.6" y="470.8"></use><use xlink:href="#h" x="28.8" y="28.8"></use><use xlink:href="#Z" x="15.6" y="456.4"></use><use xlink:href="#l"></use><use xlink:href="#N" x="30" y="485.1"></use></g><use xlink:href="#i" x="28.8" y="28.8"></use><g class="D"><use xlink:href="#g" x="86.4" y="28.8"></use><path d="M468.3 66.4h1.9c1.2 0 2.1.3 2.7 1s.9 1.6.9 2.9c0 .6-.1 1.2-.2 1.7-.2.5-.4.9-.7 1.2a4.44 4.44 0 0 1-1.1.8c-.4.2-1 .3-1.5.3h-2v-7.9zm1.9 7.1c.9 0 1.6-.3 2-.8.4-.6.7-1.3.7-2.3s-.2-1.8-.7-2.3c-.4-.5-1.1-.8-2-.8h-.9v6.2h.9z"></path><use xlink:href="#l" x="43.2"></use><use xlink:href="#a" x="15.6" y="456.3"></use><path d="M490 68.5h3.7v5.8h-1v-5H490v-.8zm3.1-1.2c-.2 0-.4-.1-.6-.2-.1-.1-.2-.3-.2-.6 0-.2.1-.4.2-.6.1-.1.3-.2.6-.2.2 0 .4.1.6.2s.2.3.2.6c0 .2-.1.4-.2.6-.2.1-.4.2-.6.2z"></path><use xlink:href="#b" x="15.7" y="456.4"></use><use xlink:href="#M" x="109.2" y="485.2"></use><path d="M511.2 71.4c0-.5.1-.9.2-1.3s.4-.7.6-1c.3-.3.6-.5.9-.6s.7-.2 1.1-.2.8.1 1.1.2.7.3.9.6c.3.3.5.6.6 1s.2.8.2 1.3-.1.9-.2 1.3-.4.7-.6 1c-.3.3-.6.5-.9.6s-.7.2-1.1.2-.8-.1-1.1-.2-.7-.3-.9-.6c-.3-.3-.5-.6-.6-1s-.2-.8-.2-1.3zm1.1 0c0 .3 0 .6.1.9s.2.5.4.7.4.3.6.5c.2.1.5.2.8.2s.5-.1.8-.2c.2-.1.4-.3.6-.5s.3-.4.4-.7.1-.6.1-.9 0-.6-.1-.9-.2-.5-.4-.7-.4-.4-.6-.5-.5-.2-.8-.2-.5.1-.8.2c-.2.1-.4.3-.6.5s-.3.4-.4.7c-.1.2-.1.5-.1.9z"></path><use xlink:href="#c" x="15.7" y="456.4"></use><use xlink:href="#V" x="109.3" y="470.8"></use><path d="M540.1 70.3c0-.6.1-1.2.3-1.7s.4-.9.7-1.3.7-.6 1.1-.8.9-.3 1.4-.3.9.1 1.3.3.7.4.9.7l-.6.6c-.2-.2-.4-.4-.7-.5s-.6-.2-.9-.2c-.4 0-.7.1-1 .2s-.6.4-.8.6c-.2.3-.4.6-.5 1s-.2.8-.2 1.3.1.9.2 1.3.3.7.5 1 .5.5.8.6c.3.2.6.2 1 .2s.7-.1 1-.2c.3-.2.5-.4.8-.6l.6.6c-.3.4-.7.6-1.1.8s-.8.3-1.3.3-1-.1-1.4-.3a4.44 4.44 0 0 1-1.1-.8 2.73 2.73 0 0 1-.7-1.3c-.1-.5-.3-.8-.3-1.5z"></path><use xlink:href="#h" x="158.4" y="28.8"></use><path d="M555 65.7h1v5.8l3.2-3.1h1.1l-2.3 2.3 2.6 3.5h-1.1l-2.1-2.9-1.4 1.3v1.6h-1v-8.5z"></path><use xlink:href="#l" x="129.6"></use><use xlink:href="#N" x="159.6" y="485.1"></use></g><use xlink:href="#S" x="123.6" y="485.1"></use><g class="D"><use xlink:href="#g" x="28.8" y="43.2"></use><path d="M410.4 85.8c0-.5.1-.9.2-1.3s.3-.7.6-1c.2-.3.5-.5.8-.6s.7-.2 1-.2c.4 0 .7.1.9.2.3.1.5.3.8.6v-3.3h1v8.5h-.7l-.1-.8c-.2.2-.5.5-.9.6s-.7.3-1 .3c-.4 0-.7-.1-1-.2s-.6-.3-.8-.6-.4-.6-.5-1c-.2-.3-.3-.7-.3-1.2zm1.1 0c0 .7.1 1.3.5 1.6.3.4.7.6 1.3.6s1.1-.3 1.6-.9v-2.9c-.3-.2-.5-.4-.8-.5s-.5-.2-.8-.2-.5.1-.7.2-.4.3-.6.5-.3.4-.4.7c-.1.2-.1.5-.1.9z"></path><use xlink:href="#l" x="-14.4" y="14.4"></use><use xlink:href="#V" x="8.5" y="485.2"></use><use xlink:href="#b" x="-49.1" y="470.8"></use><use xlink:href="#U" x="30.1" y="485.2"></use><use xlink:href="#M" x="51.6" y="499.6"></use><use xlink:href="#j" x="57.6" y="28.8"></use><path d="M462.6 83.7H461V83l1.7-.1.1-1.6h.8v1.6h2.9v.8h-2.9v2.8c0 .3 0 .5.1.7 0 .2.1.4.2.5s.3.2.5.3.4.1.7.1.5 0 .8-.1c.2 0 .4-.1.6-.2l.2.7c-.3.1-.5.2-.9.2-.3.1-.6.1-1 .1s-.8-.1-1.1-.2-.5-.3-.7-.5-.3-.5-.4-.8-.1-.6-.1-1v-2.6z"></path><use xlink:href="#M" x="73.2" y="499.6"></use><use xlink:href="#k" x="64.8" y="28.8"></use><use xlink:href="#X" x="44.4" y="485.2"></use><use xlink:href="#N" x="80.4" y="499.5"></use></g><use xlink:href="#i" x="79.2" y="43.2"></use><g class="D"><use xlink:href="#g" x="136.8" y="43.2"></use><path d="M519.3 86.9c.2.4.5.6.8.8s.6.3.9.3c.6 0 1-.1 1.2-.4.3-.3.4-.8.4-1.4v-4.4h-3.3V81h4.3v5.4c0 .4 0 .7-.1 1s-.2.6-.4.8-.5.4-.8.6a3.73 3.73 0 0 1-1.2.2 3.08 3.08 0 0 1-1.3-.3c-.4-.2-.8-.5-1-1l.5-.8z"></path><use xlink:href="#c" x="22.9" y="470.8"></use><use xlink:href="#V" x="116.5" y="485.2"></use><use xlink:href="#m"></use><use xlink:href="#m" x="14.4"></use><use xlink:href="#h" x="172.8" y="43.2"></use><use xlink:href="#V" x="152.5" y="485.2"></use><use xlink:href="#m" x="36"></use><use xlink:href="#l" x="151.2" y="14.4"></use><path d="M598 82.9h3.7v5.8h-1v-5H598v-.8zm3.1-1.2c-.2 0-.4-.1-.6-.2-.1-.1-.2-.3-.2-.6 0-.2.1-.4.2-.6.1-.1.3-.2.6-.2.2 0 .4.1.6.2s.2.3.2.6c0 .2-.1.4-.2.6-.2.1-.4.2-.6.2zm5.5 2H605V83l1.7-.1.1-1.6h.8v1.6h2.9v.8h-2.9v2.8c0 .3 0 .5.1.7 0 .2.1.4.2.5s.3.2.5.3.4.1.7.1.5 0 .8-.1c.2 0 .4-.1.6-.2l.2.7c-.3.1-.5.2-.9.2-.3.1-.6.1-1 .1s-.8-.1-1.1-.2-.5-.3-.7-.5-.3-.5-.4-.8-.1-.6-.1-1v-2.6zm7.4 4.2c0-.3.1-.5.3-.7s.4-.2.6-.2.4.1.6.2.3.4.3.7-.1.5-.3.7-.4.3-.6.3-.4-.1-.6-.3-.3-.4-.3-.7zm.5-6.1v-1.1h1v1.1l-.1 4.1h-.7l-.2-4.1z"></path><use xlink:href="#N" x="210" y="499.5"></use></g><path d="M389.9 104.3c.3 0 .6 0 .8-.1.2 0 .3-.1.5-.2s.2-.2.2-.3.1-.3.1-.5V101c0-.4.1-.7.2-.9.2-.2.4-.3.9-.4-.4-.1-.7-.2-.9-.4s-.2-.5-.2-.9v-2.2c0-.2 0-.4-.1-.5s-.1-.3-.2-.3-.3-.1-.5-.2-.4-.1-.8-.1h-.6v-.6h.7c.4 0 .7 0 1 .1s.5.1.7.3.3.3.4.5.1.5.1.8c0 .4 0 .8-.1 1.2s-.1.8-.1 1.1c0 .1 0 .2.1.3 0 .1.1.2.3.3.1.1.3.2.5.2.2.1.5.1.9.1v.6c-.4 0-.6 0-.9.1-.2.1-.4.1-.5.2l-.3.3c0 .1-.1.2-.1.3v2.4c0 .3 0 .6-.1.8s-.2.4-.4.5-.4.2-.7.3-.6.1-1 .1h-.7v-.6h.8zm-14.4 14.4c.3 0 .6 0 .8-.1.2 0 .3-.1.5-.2s.2-.2.2-.3.1-.3.1-.5v-2.2c0-.4.1-.7.2-.9.2-.2.4-.3.9-.4-.4-.1-.7-.2-.9-.4s-.2-.5-.2-.9v-2.2c0-.2 0-.4-.1-.5s-.1-.3-.2-.3-.3-.1-.5-.2-.4-.1-.8-.1h-.6v-.5h.7c.4 0 .7 0 1 .1s.5.1.7.3.3.3.4.5.1.5.1.8c0 .4 0 .8-.1 1.2s-.1.8-.1 1.1c0 .1 0 .2.1.3 0 .1.1.2.3.3.1.1.3.2.5.2.2.1.5.1.9.1v.6c-.4 0-.6 0-.9.1-.2.1-.4.1-.5.2l-.3.3c0 .1-.1.2-.1.3v2.4c0 .3 0 .6-.1.8s-.2.4-.4.5-.4.2-.7.3-.6.1-1 .1h-.7v-.6h.8zm-14.4 14.4c.3 0 .6 0 .8-.1.2 0 .3-.1.5-.2s.2-.2.2-.3.1-.3.1-.5v-2.2c0-.4.1-.7.2-.9.2-.2.4-.3.9-.4-.4-.1-.7-.2-.9-.4s-.2-.5-.2-.9V125c0-.2 0-.4-.1-.5s-.1-.3-.2-.3-.3-.1-.5-.2-.4-.1-.8-.1h-.6v-.6h.7c.4 0 .7 0 1 .1s.5.1.7.3.3.3.4.5.1.5.1.8c0 .4 0 .8-.1 1.2s-.1.8-.1 1.1c0 .1 0 .2.1.3 0 .1.1.2.3.3.1.1.3.2.5.2.2.1.5.1.9.1v.6c-.4 0-.6 0-.9.1-.2.1-.4.1-.5.2l-.3.3c0 .1-.1.2-.1.3v2.4c0 .3 0 .6-.1.8s-.2.4-.4.5-.4.2-.7.3-.6.1-1 .1h-.7v-.6h.8z"></path><path d="M289.5 356.4h-25.2a7.85 7.85 0 0 1-7.9-7.9V166.9a7.85 7.85 0 0 1 7.9-7.9h25.2a7.85 7.85 0 0 1 7.9 7.9v181.6c.1 4.3-3.5 7.9-7.9 7.9z" class="C"></path><path d="M265.2 306.7c0-4.9 2.5-7.2 2.5-7.2l2.1 1.6s-2 2.2-2 5.5c0 4 3.2 7.3 7.8 7.3 4.7 0 7.9-3.2 7.9-7.3 0-3.6-2.5-5.8-2.5-5.8h-2c-.4 0-.6.2-.6.6v1.2h-2.5V300c0-1.3.5-1.8 1.8-1.8h8.2v2.5h-2.2v.1s2.5 2.3 2.5 6.3c0 5.4-4.2 9.9-10.6 9.9-5.9-.1-10.4-4.5-10.4-10.3zm9.1-12.6c-.4 0-.6.2-.6.6v1.2h-2.4v-2.6c0-1.3.5-1.9 1.7-1.9h.9c.6 0 1 .1 1 .1v-.1c-2.1-.7-3.8-2.4-3.8-4.6 0-.4.1-.7.1-.7h2.8s-.1.4-.1.8c0 1.8 1.3 3.4 3.4 4.1.8.3 1.7.3 2.6.3h5.9v2.8h-11.5zm2.4-17.6v-.6h-.1c-2.6 0-3.5.9-3.5 3.2 0 .7.2 2.4 1.1 2.4h.8v2.6h-1.4c-2.4 0-2.7-3.6-2.7-5 0-4.7 2.5-6 5.7-6h6.2c.4 0 .6-.2.6-.6v-1.2h2.4v2.6c0 1.3-.6 1.8-1.7 1.8-.5 0-.9-.1-.9-.1v.1s2.9 1.1 2.9 4.6c0 2.5-1.5 4.9-4.4 4.9-4.7 0-5-6.3-5-8.7zm7.2 3.2c0-2.4-2.5-3.9-4.6-3.9h-.5v.7c0 2.1.1 5.9 2.8 5.9 1.1 0 2.3-.9 2.3-2.7zm-9.6-11.5c-.4 0-.6.2-.6.6v1.2h-2.4v-2.6c0-1.3.5-1.8 1.5-1.8h.8v-.1s-2.6-1.2-2.6-4.8c0-3.9 3.1-6.4 7.6-6.4 4.6 0 7.6 2.8 7.6 6.6 0 3.2-2.3 4.4-2.3 4.4v.1s.5-.1 1.3-.1h6.5v2.8h-17.4zm9.4-6.8c0-2.3-1.9-4.2-5.2-4.2-3.2 0-5.2 1.7-5.2 4.1 0 2.2 1.5 4.2 5.2 4.2 2.6.1 5.2-1.4 5.2-4.1zm-15.2-10.1c-.4 0-.6.2-.6.6v1.2h-2.4v-2.8c0-1.3.5-1.8 1.8-1.8h5.7a6.76 6.76 0 0 1 1.2.1v-.1c-1.4-.6-3.2-2.5-3.2-5.4 0-3.4 1.9-5 5.6-5h6.3c.4 0 .6-.2.6-.6v-1.2h2.4v2.7c0 1.3-.5 1.8-1.8 1.8h-6.8c-2 0-3.6.4-3.6 2.8 0 2.2 1.5 4 3.6 4.6.6.2 1.2.3 1.9.3h6.8v2.8h-17.5zm-3.3-26.9c0-5.9 4.5-10.4 10.4-10.4 2.5 0 4.9.9 6.7 2.4l2.3-2.3 1.8 1.7-2.3 2.3c1.4 1.8 2.2 4 2.2 6.3 0 5.9-4.7 10.4-10.6 10.4-6 0-10.5-4.5-10.5-10.4zm18.2 0c0-2.7-1.4-4.3-1.4-4.3l-2.2 2.2-1.9-1.7 2.3-2.2c-1.3-.9-3-1.5-4.7-1.5-4.4 0-7.7 3.3-7.7 7.5 0 4.1 3.3 7.4 7.7 7.4 4.5 0 7.9-3.2 7.9-7.4zM268.6 210c-.4 0-.6.2-.6.6v1.2h-2.5V209c0-1.3.5-1.8 1.8-1.8h15.3c.4 0 .6-.2.6-.6V201c0-.4-.2-.6-.6-.6h-1.3v-2.6h2.6c1.3 0 1.8.5 1.8 1.8v8.7c0 1.3-.5 1.8-1.8 1.8h-15.3z" fill="#fff"></path><path d="M590.7 373.8H445.2c-5.3 0-10.2-2.5-13.3-6.8L414 342.3v160.3a8.24 8.24 0 0 0 8.2 8.2h168.6a8.24 8.24 0 0 0 8.2-8.2V382c-.1-4.5-3.8-8.2-8.3-8.2z" class="F"></path><g class="L"><path d="M430.2 418.5c0-.5.1-.9.2-1.3s.3-.7.6-1c.2-.3.5-.5.8-.6s.7-.2 1-.2c.4 0 .7.1 1 .2s.6.3.8.6l.1-.6h.8v8.3h-1v-3.2c-.3.2-.5.5-.9.6a1.93 1.93 0 0 1-1 .3c-.4 0-.7-.1-1-.2s-.6-.3-.8-.6-.4-.6-.5-1c0-.4-.1-.8-.1-1.3zm1 0c0 .7.1 1.3.5 1.6.3.4.7.6 1.3.6s1.1-.3 1.6-.9V417c-.3-.2-.5-.4-.8-.5s-.5-.2-.8-.2-.5.1-.7.2-.4.3-.6.5-.3.4-.4.7c0 .2-.1.5-.1.8z"></path><use xlink:href="#c" x="-65.4" y="803.5"></use><use xlink:href="#T" x="42.6" y="817.9"></use><use xlink:href="#U" x="42.6" y="817.9"></use><use xlink:href="#n"></use></g><path d="M473.7 413.5h1.1l1.1 3.3.4 1.3.4-1.3 1.1-3.3h1.1v7.9h-.9v-6.9l-.5 1.7-1.1 3h-.4l-1.1-3-.5-1.7v6.9h-.8v-7.9z"></path><use xlink:href="#n" x="21.6"></use><path d="M488.3 413.5h2.4c.4 0 .8 0 1.2.1s.7.2.9.4c.3.2.4.4.6.7.1.3.2.7.2 1.1s-.1.8-.2 1.1-.3.6-.6.8-.6.3-.9.5c-.4.1-.8.1-1.2.1h-1.4v3.1h-1v-7.9zm2.3 4c.7 0 1.2-.1 1.5-.4s.5-.7.5-1.2c0-.6-.2-1-.5-1.2s-.9-.3-1.5-.3h-1.3v3.1h1.3z"></path><use xlink:href="#U" x="85.8" y="817.9"></use><use xlink:href="#W" x="71.4" y="817.9"></use><path d="M509.4 418.5c0-.5.1-.9.2-1.3s.3-.7.6-1c.2-.3.5-.5.8-.6s.7-.2 1-.2c.4 0 .7.1.9.2.3.1.5.3.8.6v-3.3h1v8.5h-.8l-.1-.8c-.2.2-.5.5-.9.6s-.7.3-1 .3c-.4 0-.7-.1-1-.2s-.6-.3-.8-.6-.4-.6-.5-1a3.73 3.73 0 0 1-.2-1.2zm1 0c0 .7.1 1.3.5 1.6.3.4.7.6 1.3.6s1.1-.3 1.6-.9V417c-.3-.2-.5-.4-.8-.5s-.5-.2-.8-.2-.5.1-.7.2-.4.3-.6.5-.3.4-.4.7c0 .2-.1.5-.1.8z"></path><use xlink:href="#c" x="13.8" y="803.5"></use><use xlink:href="#b" x="42.6" y="803.5"></use><use xlink:href="#o"></use><path d="M547.8 421.6v-2.4c0-.1 0-.2-.1-.3 0-.1-.1-.2-.3-.3s-.3-.2-.5-.2c-.2-.1-.5-.1-.9-.1v-.6c.4 0 .6 0 .9-.1.2-.1.4-.1.5-.2l.3-.3c0-.1.1-.2.1-.3 0-.4 0-.8-.1-1.1s-.1-.8-.1-1.2c0-.3 0-.6.1-.8s.2-.4.4-.5.4-.2.7-.3.6-.1 1-.1h.7v.6h-.6c-.3 0-.6 0-.8.1-.2 0-.3.1-.5.2-.1.1-.2.2-.2.3s-.1.3-.1.5v2.2c0 .4-.1.7-.2.9-.2.2-.4.3-.9.4.4.1.7.2.9.4s.2.5.2.9v2.2c0 .2 0 .4.1.5s.1.3.2.3c.1.1.3.1.5.2.2 0 .4.1.8.1h.6v.6h-.5c-.4 0-.7 0-1-.1s-.5-.1-.7-.3c-.2-.1-.3-.3-.4-.5s-.1-.3-.1-.7z"></path><g class="E"><path d="M446 436.3v2h-1V430h.8l.1.7c.3-.3.6-.5.9-.6.4-.2.7-.3 1.1-.3s.7.1 1 .2.6.3.8.6.4.6.5.9c.1.4.2.8.2 1.2 0 .5-.1.9-.2 1.3s-.3.7-.6 1c-.2.3-.5.5-.8.6s-.7.2-1 .2-.6-.1-.9-.2-.6-.3-.9-.6v1.3zm0-1.9l.8.5c.3.1.5.2.7.2.5 0 1-.2 1.3-.6s.5-1 .5-1.7c0-.3 0-.6-.1-.9s-.2-.5-.3-.7-.3-.3-.5-.4-.5-.2-.7-.2c-.3 0-.5.1-.8.2s-.6.4-.9.7v2.9z"></path><use xlink:href="#U" x="42.6" y="832.3"></use><use xlink:href="#W" x="28.2" y="832.3"></use><use xlink:href="#p"></use><path d="M478.7 435.8h-.8l-.1-1c-.3.3-.6.6-1 .8-.3.2-.8.3-1.2.3-.7 0-1.2-.2-1.5-.6s-.5-1-.5-1.8V430h1v3.5c0 .6.1 1 .3 1.2.2.3.6.4 1 .4.3 0 .6-.1.9-.3s.6-.4.9-.8v-4h1v5.8z"></path><use xlink:href="#b" x="-0.6" y="817.9"></use><path d="M489.6 430.8H488v-.8l1.7-.1.1-1.6h.8v1.6h2.9v.8h-2.9v2.8c0 .3 0 .5.1.7 0 .2.1.4.2.5s.3.2.5.3.4.1.7.1.5 0 .8-.1c.2 0 .4-.1.6-.2l.2.7c-.3.1-.5.2-.9.2-.3.1-.6.1-1 .1s-.8-.1-1.1-.2-.5-.3-.7-.5-.3-.5-.4-.8-.1-.6-.1-1v-2.5z"></path></g><path d="M496.7 435.6c-.5-.9-.7-1.9-.7-3.1s.2-2.2.7-3.1 1.1-1.7 2-2.3l.5.5c-.8.7-1.4 1.4-1.8 2.2s-.6 1.7-.6 2.7.2 1.9.6 2.7 1 1.5 1.8 2.2l-.5.5c-.9-.6-1.5-1.4-2-2.3z"></path><g class="E"><use xlink:href="#M" x="106.6" y="846.7"></use><path d="M508.6 432.9c0-.5.1-.9.2-1.3s.3-.7.6-1c.2-.3.5-.5.8-.6s.7-.2 1-.2c.4 0 .7.1.9.2.3.1.5.3.8.6v-3.3h1v8.5h-.8l-.1-.8c-.2.2-.5.5-.9.6a1.93 1.93 0 0 1-1 .3c-.4 0-.7-.1-1-.2s-.6-.3-.8-.6-.4-.6-.5-1a3.73 3.73 0 0 1-.2-1.2zm1 0c0 .7.1 1.3.5 1.6.3.4.7.6 1.3.6s1.1-.3 1.6-.9v-2.9c-.3-.2-.5-.4-.8-.5s-.5-.2-.8-.2-.5.1-.7.2-.4.3-.6.5-.3.4-.4.7c0 .3-.1.6-.1.9z"></path></g><use xlink:href="#O" x="99.4" y="846.7"></use><g class="L"><use xlink:href="#P" x="99.4" y="846.7"></use><use xlink:href="#Q" x="99.4" y="846.6"></use><use xlink:href="#R" x="99.4" y="846.6"></use></g><path d="M552.5 437.4c.8-.7 1.4-1.4 1.8-2.2s.6-1.7.6-2.7-.2-1.9-.6-2.7-1-1.5-1.8-2.2l.5-.5c.8.6 1.5 1.4 2 2.3s.7 1.9.7 3.1-.2 2.2-.7 3.1-1.1 1.7-2 2.3l-.5-.5zm16-1.4v-2.4c0-.1 0-.2-.1-.3 0-.1-.1-.2-.3-.3s-.3-.2-.5-.2c-.2-.1-.5-.1-.9-.1v-.6c.4 0 .6 0 .9-.1.2-.1.4-.1.5-.2l.3-.3c0-.1.1-.2.1-.3 0-.4 0-.8-.1-1.1s-.1-.8-.1-1.2c0-.3 0-.6.1-.8s.2-.4.4-.5.4-.2.7-.3.6-.1 1-.1h.7v.6h-.6c-.3 0-.6 0-.8.1-.2 0-.3.1-.5.2-.1.1-.2.2-.2.3s-.1.3-.1.5v2.2c0 .4-.1.7-.2.9-.2.2-.4.3-.9.4.4.1.7.2.9.4s.2.5.2.9v2.2c0 .2 0 .4.1.5s.1.3.2.3c.1.1.3.1.5.2.2 0 .4.1.8.1h.6v.6h-.7c-.4 0-.7 0-1-.1s-.5-.1-.7-.3c-.2-.1-.3-.3-.4-.5s.1-.3.1-.7z"></path><g class="E"><use xlink:href="#X" x="21" y="846.7"></use><path d="M466.5 448.7c0-.3.1-.6.2-.9s.4-.5.7-.6.8-.3 1.3-.4l1.9-.3c0-.2 0-.4-.1-.6s-.1-.3-.3-.5-.3-.2-.5-.3-.4-.1-.7-.1c-.4 0-.8.1-1.1.2-.4.1-.7.3-.9.5l-.4-.7c.1-.1.3-.2.5-.3l.6-.3c.2-.1.5-.1.7-.2s.5-.1.8-.1c.8 0 1.4.2 1.8.7.4.4.6 1 .6 1.7v3.6h-.8l-.1-.8c-.3.3-.7.5-1.1.7s-.8.3-1.2.3c-.3 0-.5 0-.8-.1l-.6-.3c-.2-.1-.3-.3-.4-.5s-.1-.4-.1-.7zm.9-.1c0 .2 0 .3.1.4l.3.3c.1.1.3.1.4.2.2 0 .3.1.5.1.3 0 .7-.1 1-.2s.7-.4 1-.6v-1.5c-.6 0-1.1.1-1.6.2s-.8.2-1 .3-.4.3-.5.4-.2.2-.2.4z"></path><use xlink:href="#Z" x="64.2" y="832.3"></use><use xlink:href="#T" x="78.6" y="846.7"></use><use xlink:href="#p" x="-7.2" y="28.8"></use><use xlink:href="#T" x="64.2" y="861.1"></use><use xlink:href="#V" x="57" y="861.1"></use><use xlink:href="#b" x="-0.6" y="846.7"></use><use xlink:href="#U" x="78.6" y="861.1"></use><use xlink:href="#M" x="100.2" y="875.5"></use><use xlink:href="#j" x="106.2" y="404.7"></use><use xlink:href="#o" x="-21.6" y="43.2"></use><path d="M517 458.8h3.7v5.8h-1v-5H517v-.8zm3.1-1.2c-.2 0-.4-.1-.6-.2-.1-.1-.2-.3-.2-.6 0-.2.1-.4.2-.6.1-.1.3-.2.6-.2.2 0 .4.1.6.2s.2.3.2.6c0 .2-.1.4-.2.6-.2.1-.4.2-.6.2z"></path><use xlink:href="#W" x="93" y="861.1"></use><use xlink:href="#X" x="93" y="861.1"></use></g><path d="M445.7 480.3c.3 0 .6 0 .8-.1.2 0 .3-.1.5-.2s.2-.2.2-.3.1-.3.1-.5V477c0-.4.1-.7.2-.9.2-.2.4-.3.9-.4-.4-.1-.7-.2-.9-.4s-.2-.5-.2-.9v-2.2c0-.2 0-.4-.1-.5s-.1-.3-.2-.3-.3-.1-.5-.2-.4-.1-.8-.1h-.6v-.6h.7c.4 0 .7 0 1 .1s.5.1.7.3.3.3.4.5.1.5.1.8c0 .4 0 .8-.1 1.2s-.1.8-.1 1.1c0 .1 0 .2.1.3 0 .1.1.2.3.3.1.1.3.2.5.2.2.1.5.1.9.1v.6c-.4 0-.6 0-.9.1-.2.1-.4.1-.5.2l-.3.3c0 .1-.1.2-.1.3v2.4c0 .3 0 .6-.1.8s-.2.4-.4.5-.4.2-.7.3-.6.1-1 .1h-.7v-.6h.8z"></path><use xlink:href="#e" x="57" y="846.7"></use><g class="E"><path d="M434.2 389.2c2 0 3 1 3 1l-.7.9s-.9-.8-2.3-.8c-1.7 0-3 1.4-3 3.2 0 2 1.4 3.3 3.1 3.3 1.5 0 2.4-1.1 2.4-1.1v-.7c0-.2-.1-.3-.3-.3h-.5v-1h1.1c.5 0 .8.2.8.8v3.4h-1.1v-.9s-.9 1-2.6 1c-2.3 0-4.1-1.8-4.1-4.4-.1-2.4 1.7-4.4 4.2-4.4zm5.3 1.2h-.8v-1h5c.5 0 .8.2.8.8v1.1h-1.1v-.5c0-.2-.1-.3-.3-.3h-2.4v2.7h3v1h-3v2.5c0 .2.1.3.3.3h2.5c.2 0 .3-.1.3-.3v-.7h1.1v1.1c0 .5-.2.8-.8.8h-3.8c-.5 0-.8-.2-.8-.8v-6.7zm8.7 0h-1.7c-.2 0-.3.1-.3.3v.5h-1.1v-1.1c0-.5.2-.7.7-.7h5.8c.5 0 .7.2.7.7v1.1h-1.1v-.5c0-.2-.1-.3-.3-.3h-1.7v7.4H448v-7.4zm10.5-1.5h1l-3 9.4h-1l3-9.4zm4.1 2.7c1.5 0 1.9.9 1.9.9v-.2c0-.4.2-.6.7-.6h1.1v1h-.5c-.2 0-.3.1-.3.2v4.6c0 2-1.5 2.8-3.1 2.8a4.99 4.99 0 0 1-2.1-.5l.4-.9s.7.4 1.7.4c1.1 0 1.9-.5 1.9-1.7v-.8c-.4.6-.9.9-1.8.9-1.7 0-2.7-1.4-2.7-3.1.2-1.7 1.2-3 2.8-3zm1.9 3.1c0-1.6-.8-2-1.7-2-1.1 0-1.7.8-1.7 2 0 1.3.7 2.1 1.8 2.1.9 0 1.6-.5 1.6-2.1z"></path><use xlink:href="#f" x="-14" y="515.2"></use><path d="M475.3 394.1h.3v-.1c0-1.1-.4-1.5-1.3-1.5-.3 0-1 .1-1 .5v.3h-1.1v-.6c0-1 1.5-1.1 2.1-1.1 2 0 2.5 1 2.5 2.4v2.6c0 .2.1.3.3.3h.5v1h-1.1c-.5 0-.8-.3-.8-.7v-.4s-.5 1.2-1.9 1.2c-1 0-2.1-.6-2.1-1.8-.1-2 2.5-2.1 3.6-2.1zm-1.4 3c1 0 1.6-1 1.6-1.9v-.2h-.3c-.9 0-2.5 0-2.5 1.2.1.4.4.9 1.2.9zm4.8-4c0-.2-.1-.3-.3-.3h-.5v-1h1.1c.5 0 .7.2.7.6v.3s.5-1.1 2-1.1c1.6 0 2.7 1.3 2.7 3.2s-1.2 3.2-2.8 3.2c-1.3 0-1.9-1-1.9-1v3.2h-1.2v-7.1zm2.8 3.9c1 0 1.8-.8 1.8-2.2 0-1.3-.7-2.2-1.7-2.2-.9 0-1.8.6-1.8 2.2 0 1.1.6 2.2 1.7 2.2zm4.3-6.3c0-.2-.1-.3-.3-.3h-.5v-1h1.2c.5 0 .8.2.8.7v2.9c.3-.6 1-1.4 2.3-1.4 1.4 0 2.1.8 2.1 2.3v2.6c0 .2.1.3.3.3h.5v1h-1.1c-.5 0-.8-.2-.8-.8v-2.9c0-.9-.2-1.5-1.2-1.5-.9 0-1.7.6-1.9 1.5-.1.2-.1.5-.1.8v2.8h-1.2v-7zm9.7.9c1.4 0 2 1 2 1v-.3c0-.4.2-.6.7-.6h1.1v1h-.5c-.2 0-.3.1-.3.3v7.2h-1.2V397s-.5 1-2 1c-1.6 0-2.7-1.3-2.7-3.2.1-1.9 1.3-3.2 2.9-3.2zm1.9 3.2c0-1.1-.6-2.2-1.7-2.2-1 0-1.8.8-1.8 2.2 0 1.3.7 2.2 1.7 2.2.9 0 1.8-.6 1.8-2.2zm3.1-4.1c0-.2-.1-.3-.3-.3h-.5v-1h1.2c.5 0 .8.2.8.8v6.4c0 .2.1.3.3.3h.5v1h-1.2c-.5 0-.8-.2-.8-.8v-6.4z"></path></g><defs><path id="B" d="M474.3-300.1a.47.47 0 0 0-.5-.5h-.8v-1.7h2c.9 0 1.3.4 1.3 1.3v11a.47.47 0 0 0 .5.5h.8v1.7h-2c-.9 0-1.3-.4-1.3-1.3v-11z"></path><path id="C" d="M496.8-296a.47.47 0 0 0-.5-.5h-.8v-1.7h1.9c.9 0 1.3.4 1.3 1.2v1c.4-.9 1.6-2.4 3.9-2.4 2.5 0 3.6 1.3 3.6 4v4.5a.47.47 0 0 0 .5.5h.8v1.7h-2c-.9 0-1.3-.4-1.3-1.3v-4.9c0-1.5-.3-2.6-2-2.6-1.6 0-2.9 1-3.3 2.5-.1.4-.2.9-.2 1.4v4.9h-2v-8.3z"></path><path id="D" d="M509.8-296.6h-1.4v-1.6h1.4v-2.9h2v2.9h2.5v1.6h-2.5v4.8c0 2.1 1.4 2.3 2.2 2.3h.5v1.8h-.7c-1.3 0-4-.4-4-3.9v-5z"></path><path id="E" d="M25.4-231.3l-1.4.5-.7-1.9 6.2-2.2c4.6-1.7 8.7 0 10.5 4.8s-.3 8.8-4.9 10.4l-3.4 1.2c-1 .4-1.5.1-1.9-.9l-4.4-11.9zm6.8 10.5l2-.7c3.4-1.2 4.9-4.1 3.5-7.8s-4.3-4.9-7.7-3.7l-2.5.9 4 11.1c.2.2.4.4.7.2z"></path><path id="F" d="M49.6-230.7l.5-.1v-.1c-.3-2-1.2-2.6-3-2.3-.5.1-1.9.5-1.7 1.2l.1.7-2.1.3-.2-1.1c-.3-1.9 2.5-2.6 3.6-2.8 3.7-.6 5 1.2 5.5 3.7l.8 4.9c.1.3.3.5.6.4l.9-.2.3 1.9-2.1.3c-1 .2-1.5-.3-1.6-1.1-.1-.4-.1-.7-.1-.7s-.5 2.4-3.3 2.9c-2 .3-4.1-.5-4.5-2.8-.6-3.7 4.4-4.7 6.3-5.1zm-1.6 6.1c1.9-.3 2.7-2.5 2.5-4.2l-.1-.4-.6.1c-1.7.3-4.6.9-4.3 3 .2 1 1.1 1.8 2.5 1.5z"></path><path id="G" d="M56.2-234.1l-1.5.1-.2-1.8 1.6-.1-.3-3.2 2.2-.2.3 3.2 2.8-.3.2 1.8-2.8.3.5 5.3c.2 2.3 1.8 2.5 2.7 2.4.3 0 .5-.1.5-.1l.2 2s-.3.1-.8.1c-1.5.1-4.5 0-4.8-3.9l-.6-5.6z"></path><path id="H" d="M97-231.3l.5.1v-.1c.2-2-.4-2.8-2.3-3-.5-.1-1.9-.1-2 .7l-.1.7-2.1-.2.1-1.1c.2-1.9 3.1-1.9 4.2-1.7 3.7.4 4.5 2.5 4.3 5l-.5 4.9c0 .3.1.5.4.6l.9.1-.2 1.9-2.1-.2c-1-.1-1.4-.7-1.3-1.5 0-.4.1-.7.1-.7s-1.2 2.2-3.9 1.9c-2-.2-3.8-1.6-3.5-4 .5-3.9 5.6-3.6 7.5-3.4zm-3.1 5.4c1.9.2 3.3-1.6 3.5-3.3v-.4l-.6-.1c-1.7-.2-4.7-.4-4.9 1.7-.1 1 .5 1.9 2 2.1z"></path><path id="I" d="M102.9-226.5s1 2 3.1 2.4c1.1.2 2.1-.1 2.3-1.1.4-2.1-5.9-3.1-5.1-6.8.4-2.2 2.6-2.8 4.9-2.3 1.4.3 3.6 1.2 3.3 3l-.2 1.1-2-.4.1-.6c.1-.7-.8-1.2-1.5-1.3-1.3-.3-2.2 0-2.4.9-.4 2.2 5.9 2.9 5.1 6.8-.4 2-2.5 3-4.9 2.5-3-.6-4.2-2.9-4.2-2.9l1.5-1.3z"></path><path id="J" d="M238.5-370.1c0-.4-.2-.5-.5-.5h-1v-2h2.2c1.1 0 1.5.5 1.5 1.2v.7s1-2.2 4.1-2.2c3.3 0 5.5 2.6 5.5 6.5s-2.4 6.5-5.6 6.5c-2.7 0-3.8-2-3.8-2v6.6h-2.4v-14.8zm5.8 8.1c2 0 3.6-1.6 3.6-4.4 0-2.7-1.4-4.4-3.5-4.4-1.8 0-3.6 1.3-3.6 4.5 0 2.1 1.2 4.3 3.5 4.3z"></path><path id="K" d="M375.6-425v-2.4c0-.1 0-.2-.1-.3 0-.1-.1-.2-.3-.3s-.3-.2-.5-.2c-.2-.1-.5-.1-.9-.1v-.6c.4 0 .6 0 .9-.1.2-.1.4-.1.5-.2l.3-.3c0-.1.1-.2.1-.3 0-.4 0-.8-.1-1.1s-.1-.8-.1-1.2c0-.3 0-.6.1-.8s.2-.4.4-.5.4-.2.7-.3.6-.1 1-.1h.7v.6h-.6c-.3 0-.6 0-.8.1-.2 0-.3.1-.5.2-.1.1-.2.2-.2.3s-.1.3-.1.5v2.2c0 .4-.1.7-.2.9-.2.2-.4.3-.9.4.4.1.7.2.9.4s.2.5.2.9v2.2c0 .2 0 .4.1.5s.1.3.2.3c.1.1.3.1.5.2.2 0 .4.1.8.1h.6v.6h-.7c-.4 0-.7 0-1-.1s-.5-.1-.7-.3c-.2-.1-.3-.3-.4-.5s.1-.4.1-.7z"></path><path id="L" d="M390.1-418.7a2.36 2.36 0 0 0-.9.8c-.2.3-.3.7-.4 1.1.1 0 .2-.1.3-.1.2 0 .5.1.6.2s.2.4.2.6c0 .3-.1.5-.3.7s-.4.3-.6.3c-.3 0-.6-.1-.8-.4s-.3-.6-.3-1.1c0-.6.2-1.1.5-1.6s.7-.9 1.3-1.1l.4.6zm2.7 0a2.36 2.36 0 0 0-.9.8c-.2.3-.3.7-.4 1.1.1 0 .2-.1.3-.1.2 0 .5.1.6.2s.2.4.2.6c0 .3-.1.5-.3.7s-.4.3-.6.3c-.3 0-.6-.1-.8-.4s-.3-.6-.3-1.1c0-.6.2-1.1.5-1.6s.7-.9 1.3-1.1l.4.6z"></path><path id="M" d="M395.2-416.7h3.7v5.8h-1v-5h-2.7v-.8zm3.1-1.2c-.2 0-.4-.1-.6-.2-.1-.1-.2-.3-.2-.6 0-.2.1-.4.2-.6.1-.1.3-.2.6-.2.2 0 .4.1.6.2s.2.3.2.6c0 .2-.1.4-.2.6-.2.1-.4.2-.6.2z"></path><path id="N" d="M409.7-415.6a2.36 2.36 0 0 0 .9-.8c.2-.3.3-.7.4-1.1-.1 0-.2.1-.3.1-.3 0-.5-.1-.6-.2-.2-.2-.2-.4-.2-.6 0-.3.1-.5.3-.7s.4-.3.6-.3c.3 0 .6.1.8.4s.3.6.3 1.1c0 .6-.2 1.1-.5 1.6s-.7.8-1.3 1.1l-.4-.6zm2.8 0a2.36 2.36 0 0 0 .9-.8c.2-.3.3-.7.4-1.1-.1 0-.2.1-.3.1-.3 0-.5-.1-.6-.2-.2-.2-.2-.4-.2-.6 0-.3.1-.5.3-.7s.4-.3.6-.3c.3 0 .6.1.8.4s.3.6.3 1.1c0 .6-.2 1.1-.5 1.6s-.7.8-1.3 1.1l-.4-.6z"></path><path id="O" d="M418.3-416c0-.3.1-.5.3-.7s.4-.3.7-.3.5.1.7.3.3.4.3.7-.1.5-.3.7-.4.3-.7.3-.5-.1-.7-.3-.3-.4-.3-.7zm0 4.3c0-.3.1-.5.3-.7s.4-.3.7-.3.5.1.7.3.3.4.3.7-.1.5-.3.7-.4.3-.7.3-.5-.1-.7-.3-.3-.4-.3-.7z"></path><path id="P" d="M436.4-411.7v.8h-5.2v-.8h2.2v-5.6h-1.6v-.6c.4-.1.8-.1 1.1-.2l.8-.3h.7v6.8h2z"></path><path id="Q" d="M438.2-411.4l1.7-1.6 1.3-1.3.8-1.1a1.93 1.93 0 0 0 .3-1c0-.4-.1-.8-.4-1.1s-.7-.4-1.3-.4a1.69 1.69 0 0 0-1 .3c-.3.2-.6.4-.8.7l-.6-.6c.3-.4.7-.6 1.1-.8s.9-.3 1.4-.3c.4 0 .7.1 1 .2s.6.3.8.5.4.4.5.7.2.6.2.9c0 .4-.1.7-.3 1.1s-.4.7-.7 1.1-.7.8-1.1 1.2l-1.4 1.3h3.9v.9h-5.4v-.7z"></path><path id="R" d="M445.7-412.4c.3.2.6.5.9.6.4.2.8.3 1.3.3.3 0 .5 0 .7-.1l.6-.3c.2-.1.3-.3.4-.4s.1-.4.1-.6 0-.4-.1-.6-.3-.3-.5-.5c-.2-.1-.5-.2-.9-.3s-.8-.1-1.3-.1v-.8c.5 0 .8 0 1.2-.1l.8-.3c.2-.1.3-.3.4-.5s.1-.4.1-.6c0-.4-.1-.7-.4-.9s-.7-.3-1.1-.3-.7.1-1 .2-.6.3-.9.6l-.5-.6c.3-.3.7-.5 1.1-.7s.9-.3 1.4-.3c.4 0 .7 0 1 .1s.6.2.8.4.4.4.5.6.2.5.2.8c0 .5-.2.8-.5 1.1s-.7.5-1.2.7c.3.1.5.1.7.2s.4.2.6.4.3.4.4.6.1.5.1.7c0 .3-.1.6-.2.9s-.3.5-.6.7a2.47 2.47 0 0 1-.9.4c-.4.1-.7.1-1.1.1-.7 0-1.2-.1-1.7-.3a4.44 4.44 0 0 1-1.1-.8l.7-.3z"></path><path id="S" d="M454.1-408.9c.5-.2.9-.5 1.1-.8s.4-.7.4-1.2h-.2c-.3 0-.5-.1-.7-.2s-.3-.4-.3-.7.1-.5.3-.7.4-.2.7-.2c.4 0 .6.1.8.4s.3.7.3 1.1c0 .7-.2 1.3-.6 1.8s-.9.8-1.6 1.1l-.2-.6z"></path><path id="T" d="M402.1-399.4c0-.5.1-.9.3-1.3s.4-.7.7-1 .6-.5.9-.6c.4-.1.7-.2 1.1-.2s.8.1 1.1.2.6.3.8.6c.2.2.4.5.5.9.1.3.2.7.2 1.1v.5h-4.6c0 .6.3 1.1.7 1.5s.9.6 1.6.6c.3 0 .7 0 .9-.1.3-.1.6-.2.8-.4l.3.6c-.3.2-.6.3-1 .5-.4.1-.8.2-1.3.2-.4 0-.8-.1-1.2-.2s-.7-.3-1-.6-.5-.6-.7-1-.1-.8-.1-1.3zm4.7-.4c0-.6-.2-1.1-.5-1.4s-.7-.5-1.3-.5c-.2 0-.5 0-.7.1s-.4.2-.6.4-.3.3-.4.6c-.1.2-.2.5-.2.8h3.7z"></path><path id="U" d="M410.2-402.3h.8l.1 1.4c.3-.5.7-.8 1.1-1.1s.9-.4 1.5-.4c.2 0 .4 0 .6.1.2 0 .4.1.5.2l-.2.9c-.2-.1-.4-.1-.5-.2h-.6c-.4 0-.9.1-1.3.4a3.61 3.61 0 0 0-1.1 1.3v3.4h-1v-6z"></path><path id="V" d="M417-397.9c.3.2.7.4 1.1.6.4.1.8.2 1.4.2s.9-.1 1.2-.3.4-.4.4-.6-.1-.4-.4-.6-.8-.4-1.5-.5l-.9-.3c-.3-.1-.5-.2-.7-.4-.2-.1-.4-.3-.5-.5s-.2-.4-.2-.6.1-.4.2-.7c.1-.2.3-.4.5-.5s.5-.3.8-.3.7-.1 1.1-.1.9.1 1.3.2.8.3 1.1.5l-.5.6a2.47 2.47 0 0 0-.9-.4c-.3-.1-.6-.2-1-.2-.3 0-.5 0-.7.1s-.3.1-.4.2-.2.2-.2.3-.1.2-.1.3c0 .2.2.4.5.6s.8.3 1.3.4c.8.2 1.4.4 1.8.7s.6.6.6 1.1c0 .2-.1.5-.2.7s-.3.4-.5.6-.5.3-.8.4-.7.1-1.1.1c-.6 0-1.1-.1-1.6-.3s-.9-.4-1.3-.6l.2-.7z"></path><path id="W" d="M430.8-399.4c0-.5.1-.9.2-1.3s.4-.7.6-1 .6-.5.9-.6.7-.2 1.1-.2.8.1 1.1.2.7.3.9.6c.3.3.5.6.6 1s.2.8.2 1.3-.1.9-.2 1.3-.4.7-.6 1c-.3.3-.6.5-.9.6s-.7.2-1.1.2-.8-.1-1.1-.2-.7-.3-.9-.6c-.3-.3-.5-.6-.6-1s-.2-.8-.2-1.3zm1 0c0 .3 0 .6.1.9s.2.5.4.7.4.3.6.5c.2.1.5.2.8.2s.5-.1.8-.2c.2-.1.4-.3.6-.5s.3-.4.4-.7.1-.6.1-.9 0-.6-.1-.9-.2-.5-.4-.7-.4-.4-.6-.5-.5-.2-.8-.2-.5.1-.8.2c-.2.1-.4.3-.6.5s-.3.4-.4.7c0 .3-.1.6-.1.9z"></path><path id="X" d="M438.4-402.3h.8l.1 1c.3-.3.6-.6 1-.8s.8-.3 1.2-.3c.7 0 1.2.2 1.5.6s.5 1 .5 1.8v3.6h-1v-3.5c0-.6-.1-1-.3-1.2-.2-.3-.6-.4-1-.4-.2 0-.3 0-.5.1s-.3.1-.4.2-.3.2-.4.3c-.2.1-.3.3-.5.5v4.1h-1v-6z"></path><path id="Y" d="M402.3-383.6c0-.3.1-.6.2-.9s.4-.5.7-.6.8-.3 1.3-.4l1.9-.3c0-.2 0-.4-.1-.6s-.1-.3-.3-.5-.3-.2-.5-.3-.4-.1-.7-.1c-.4 0-.8.1-1.1.2-.4.1-.7.3-.9.5l-.4-.7c.1-.1.3-.2.5-.3l.6-.3c.2-.1.5-.1.7-.2s.5-.1.8-.1c.8 0 1.4.2 1.8.7.4.4.6 1 .6 1.7v3.6h-.8l-.1-.8c-.3.3-.7.5-1.1.7s-.8.3-1.2.3c-.3 0-.5 0-.8-.1l-.6-.3c-.2-.1-.3-.3-.4-.5s-.1-.4-.1-.7zm.9 0c0 .2 0 .3.1.4l.3.3c.1.1.3.1.4.2.2 0 .3.1.5.1.3 0 .7-.1 1-.2s.7-.4 1-.6v-1.5c-.6 0-1.1.1-1.6.2s-.8.2-1 .3-.4.3-.5.4c-.1 0-.2.2-.2.4z"></path><path id="Z" d="M409.2-387.9h.8l.1.8c.1-.3.3-.5.5-.7s.5-.3.8-.3c.6 0 1 .3 1.1 1 .2-.3.4-.5.6-.7s.5-.3.8-.3c.4 0 .7.2.9.5s.3.8.3 1.3v4.2h-.9v-4.1c0-.7-.2-1-.6-1-.2 0-.4.1-.5.2-.2.1-.3.4-.5.7v4.2h-.8v-4.1c0-.7-.2-1-.7-1-.2 0-.4.1-.5.2s-.3.4-.4.7v4.2h-.9v-5.8z"></path><path id="a" d="M467.1-390.6h3v6.7c0 .4.1.7.3.9s.5.3.8.3.7-.1 1.1-.3l.3.7c-.3.1-.5.2-.7.2-.2.1-.5.1-.8.1-.6 0-1.1-.2-1.4-.5-.3-.4-.5-.9-.5-1.6v-5.8h-2v-.7z"></path><path id="b" d="M481.4-385c0-.5.1-.9.3-1.3s.4-.7.7-1 .6-.5 1-.6.8-.2 1.3-.2.9.1 1.2.3l.9.6-.5.6c-.2-.2-.5-.4-.8-.5s-.5-.2-.8-.2-.6.1-.9.2-.5.3-.7.5-.4.4-.5.7-.2.6-.2.9.1.6.2.9.3.5.5.7.4.3.7.5c.3.1.6.2.9.2.4 0 .7-.1 1-.2s.6-.3.8-.5l.4.6c-.3.3-.7.5-1.1.7s-.8.2-1.2.2c-.5 0-.9-.1-1.3-.2s-.7-.3-1-.6-.5-.6-.7-1-.2-.8-.2-1.3z"></path><path id="c" d="M508.1-382.1h-.8l-.1-1c-.3.3-.6.6-1 .8-.3.2-.8.3-1.2.3-.7 0-1.2-.2-1.5-.6s-.5-1-.5-1.8v-3.6h1v3.5c0 .6.1 1 .3 1.2.2.3.6.4 1 .4.3 0 .6-.1.9-.3s.6-.4.9-.8v-4h1v5.9z"></path><path id="d" d="M389.5-368.5c0-.3.1-.5.3-.7s.4-.3.7-.3.5.1.7.3.3.4.3.7-.1.5-.3.7-.4.3-.7.3-.5-.1-.7-.3-.3-.4-.3-.7z"></path><path id="e" d="M374.3-352c.3 0 .6 0 .8-.1.2 0 .3-.1.5-.2s.2-.2.2-.3.1-.3.1-.5v-2.2c0-.4.1-.7.2-.9.2-.2.4-.3.9-.4-.4-.1-.7-.2-.9-.4s-.2-.5-.2-.9v-2.2c0-.2 0-.4-.1-.5s-.1-.3-.2-.3-.3-.1-.5-.2-.4-.1-.8-.1h-.6v-.6h.7c.4 0 .7 0 1 .1s.5.1.7.3.3.3.4.5.1.5.1.8c0 .4 0 .8-.1 1.2s-.1.8-.1 1.1c0 .1 0 .2.1.3 0 .1.1.2.3.3.1.1.3.2.5.2.2.1.5.1.9.1v.6c-.4 0-.6 0-.9.1-.2.1-.4.1-.5.2l-.3.3c0 .1-.1.2-.1.3v2.4c0 .3 0 .6-.1.8s-.2.4-.4.5-.4.2-.7.3-.6.1-1 .1h-.7v-.6h.8z"></path><path id="f" d="M481.9-122.1c0-.2-.1-.3-.3-.3h-.5v-1h1.1c.5 0 .8.2.8.7v.8c.3-.9 1-1.6 1.9-1.6h.3v1.2h-.3c-.7 0-1.4.5-1.7 1.4-.1.3-.1.7-.1 1.1v2.5h-1.2v-4.8z"></path><path id="g" d="M376.9 37.7a2.36 2.36 0 0 0-.9.8c-.2.3-.3.7-.4 1.1.1 0 .2-.1.3-.1.2 0 .5.1.6.2s.2.4.2.6c0 .3-.1.5-.3.7s-.4.3-.6.3c-.3 0-.6-.1-.8-.4s-.3-.6-.3-1.1c0-.6.2-1.1.5-1.6s.7-.9 1.3-1.1l.4.6zm2.8 0a2.36 2.36 0 0 0-.9.8c-.2.3-.3.7-.4 1.1.1 0 .2-.1.3-.1.2 0 .5.1.6.2s.2.4.2.6c0 .3-.1.5-.3.7s-.4.3-.6.3c-.3 0-.6-.1-.8-.4s-.3-.6-.3-1.1c0-.6.2-1.1.5-1.6s.7-.9 1.3-1.1l.4.6z"></path><path id="h" d="M389.1 44c0-.3.1-.6.2-.9s.4-.5.7-.6.8-.3 1.3-.4l1.9-.3c0-.2 0-.4-.1-.6s-.1-.3-.3-.5-.3-.2-.5-.3-.4-.1-.7-.1c-.4 0-.8.1-1.1.2-.4.1-.7.3-.9.5l-.4-.7c.1-.1.3-.2.5-.3l.6-.3c.2-.1.5-.1.7-.2s.5-.1.8-.1c.8 0 1.4.2 1.8.7.4.4.6 1 .6 1.7v3.6h-.8l-.1-.8c-.3.3-.7.5-1.1.7s-.8.3-1.2.3c-.3 0-.5 0-.8-.1l-.6-.3c-.2-.1-.3-.3-.4-.5s-.1-.5-.1-.7zm.9-.1c0 .2 0 .3.1.4l.3.3c.1.1.3.1.4.2.2 0 .3.1.5.1.3 0 .7-.1 1-.2s.7-.4 1-.6v-1.5c-.6 0-1.1.1-1.6.2s-.8.2-1 .3-.4.3-.5.4c-.1 0-.2.2-.2.4z"></path><path id="i" d="M419.5 40.3c0-.3.1-.5.3-.7s.4-.3.7-.3.5.1.7.3.3.4.3.7-.1.5-.3.7-.4.3-.7.3-.5-.1-.7-.3c-.2-.1-.3-.4-.3-.7zm0 4.3c0-.3.1-.5.3-.7s.4-.3.7-.3.5.1.7.3.3.4.3.7-.1.5-.3.7-.4.3-.7.3-.5-.1-.7-.3c-.2-.1-.3-.4-.3-.7z"></path><path id="j" d="M397.4 60.4v2h-1v-8.3h.8l.1.7c.3-.3.6-.5.9-.6.4-.2.7-.3 1.1-.3s.7.1 1 .2.6.3.8.6.4.6.5.9c.1.4.2.8.2 1.2 0 .5-.1.9-.2 1.3s-.3.7-.6 1c-.2.3-.5.5-.8.6s-.7.2-1 .2-.6-.1-.9-.2-.6-.3-.9-.6v1.3zm0-1.9l.8.5c.3.1.5.2.7.2.5 0 1-.2 1.3-.6s.5-1 .5-1.7c0-.3 0-.6-.1-.9s-.2-.5-.3-.7-.3-.3-.5-.4-.5-.2-.7-.2c-.3 0-.5.1-.8.2s-.6.4-.9.7v2.9z"></path><path id="k" d="M410.4 57c0-.5.1-.9.2-1.3s.4-.7.6-1 .6-.5.9-.6.7-.2 1.1-.2.8.1 1.1.2.7.3.9.6c.3.3.5.6.6 1s.2.8.2 1.3-.1.9-.2 1.3-.4.7-.6 1c-.3.3-.6.5-.9.6s-.7.2-1.1.2-.8-.1-1.1-.2-.7-.3-.9-.6c-.3-.3-.5-.6-.6-1s-.2-.8-.2-1.3zm1.1 0c0 .3 0 .6.1.9s.2.5.4.7.4.3.6.5c.2.1.5.2.8.2s.5-.1.8-.2c.2-.1.4-.3.6-.5s.3-.4.4-.7.1-.6.1-.9 0-.6-.1-.9-.2-.5-.4-.7-.4-.4-.6-.5-.5-.2-.8-.2-.5.1-.8.2c-.2.1-.4.3-.6.5s-.3.4-.4.7c-.1.2-.1.5-.1.9z"></path><path id="l" d="M432.1 71.4c0-.5.1-.9.3-1.3s.4-.7.7-1 .6-.5.9-.6c.4-.1.7-.2 1.1-.2s.8.1 1.1.2.6.3.8.6c.2.2.4.5.5.9.1.3.2.7.2 1.1v.5h-4.6c0 .6.3 1.1.7 1.5s.9.6 1.6.6c.3 0 .7 0 .9-.1.3-.1.6-.2.8-.4l.3.6c-.3.2-.6.3-1 .5-.4.1-.8.2-1.3.2-.4 0-.8-.1-1.2-.2s-.7-.3-1-.6-.5-.6-.7-1-.1-.8-.1-1.3zm4.7-.5c0-.6-.2-1.1-.5-1.4s-.7-.5-1.3-.5c-.2 0-.5 0-.7.1s-.4.2-.6.4-.3.3-.4.6c-.1.2-.2.5-.2.8h3.7z"></path><path id="m" d="M541.8 83.7h-1.6V83l1.7-.1.1-1.6h.8v1.6h2.9v.8h-2.9v2.8c0 .3 0 .5.1.7 0 .2.1.4.2.5s.3.2.5.3.4.1.7.1.5 0 .8-.1c.2 0 .4-.1.6-.2l.2.7c-.3.1-.5.2-.9.2-.3.1-.6.1-1 .1s-.8-.1-1.1-.2-.5-.3-.7-.5-.3-.5-.4-.8-.1-.6-.1-1v-2.6z"></path><path id="n" d="M459.5 423.1h.3c.4 0 .7-.1 1-.4.3-.2.5-.5.6-.9l.2-.4-2.7-5.8h1l1.4 3.2c.1.3.2.5.4.8.1.3.2.6.4.9l.3-.9.3-.8 1.3-3.2h.9l-2.6 6.3c-.1.3-.2.6-.4.8-.1.2-.3.5-.5.6-.2.2-.4.3-.7.4s-.6.2-.9.2-.5 0-.8-.1l.2-.8c.2 0 .3.1.3.1z"></path><path id="o" d="M532.8 416.4h-1.6v-.7l1.7-.1.1-1.6h.8v1.6h2.9v.8h-2.9v2.8c0 .3 0 .5.1.7 0 .2.1.4.2.5s.3.2.5.3.4.1.7.1.5 0 .8-.1c.2 0 .4-.1.6-.2l.2.7c-.3.1-.5.2-.9.2-.3.1-.6.1-1 .1s-.8-.1-1.1-.2-.5-.3-.7-.5-.3-.5-.4-.8-.1-.6-.1-1v-2.6z"></path><path id="p" d="M466.2 432.9c0-.5.1-.9.2-1.3s.3-.7.6-1c.2-.3.5-.5.8-.6s.7-.2 1-.2c.4 0 .7.1.9.2.3.1.5.3.8.6v-3.3h1v8.5h-.8l-.1-.8c-.2.2-.5.5-.9.6s-.7.3-1 .3c-.4 0-.7-.1-1-.2s-.6-.3-.8-.6-.4-.6-.5-1a3.73 3.73 0 0 1-.2-1.2zm1 0c0 .7.1 1.3.5 1.6.3.4.7.6 1.3.6s1.1-.3 1.6-.9v-2.9c-.3-.2-.5-.4-.8-.5s-.5-.2-.8-.2-.5.1-.7.2-.4.3-.6.5-.3.4-.4.7c0 .3-.1.6-.1.9z"></path></defs></svg> 